<?xml version="1.0" encoding="utf-8"?>
<!-- Generator: Adobe Illustrator 27.8.1, SVG Export Plug-In . SVG Version: 6.00 Build 0)  -->
<svg version="1.1" id="Layer_1" xmlns="http://www.w3.org/2000/svg" xmlns:xlink="http://www.w3.org/1999/xlink" x="0px" y="0px"
	 viewBox="0 0 982 954" style="enable-background:new 0 0 982 954;" xml:space="preserve">
<style type="text/css">
	.st0{fill:none;stroke:#1B2129;}
	.st1{fill-rule:evenodd;clip-rule:evenodd;fill:#A9B971;}
</style>
<g id="Page-1">
	<g id="_x30_1.Home" transform="translate(123.000000, -1688.000000)">
		<g id="About" transform="translate(-512.435015, 1688.655000)">
			<g id="bg-2" transform="translate(390.000000, 0.000000)">
				<path id="bg-shape" class="st0" d="M802.9,667.3c4.1,37.4-16.9,82-50.7,121c-35.2,40.7-84.4,75.3-133.3,89.1
					c-41.5,11.7-82.8,8.4-115.4-18.9c-75.1-63-184.4-218.7-258.4-361.3c-33.3-64.2-59.5-125.8-72.1-175
					c-11.1-43.4-11.7-77.3,2.8-94.6c38.2-45.5,120.7-89.8,210.2-98.7c68.8-6.8,141.7,7.3,202,57.8c63.2,53,54.8,129.8,46.8,203.4
					c-0.2,1.5-0.3,3-0.5,4.6l-0.3,3c-0.1,1-0.2,2-0.3,3l-0.3,3c-4.8,46-7.7,90,8.9,125.6c13.5,28.9,39.9,52.2,88.7,66.3
					c22.5,6.5,39.1,15.9,50.7,27.5C794.5,635.9,801.1,650.9,802.9,667.3z"/>
				<path id="bg-shape-blue" class="st1" d="M569.2,525.3c27.5-11.7,9.1-103.2,2.6-159.1c-6.3-53.7,73.5-72.1,60.6-102.5
					c-26.4-62.1-185.8-54.5-133.6,4.2s-58.1,84.2-31.7,146.3S541.7,537,569.2,525.3z"/>
			</g>
		</g>
	</g>
</g>
</svg>
