<?xml version="1.0" encoding="utf-8"?>
<!-- Generator: Adobe Illustrator 27.8.1, SVG Export Plug-In . SVG Version: 6.00 Build 0)  -->
<svg version="1.1" id="Layer_1" xmlns="http://www.w3.org/2000/svg" xmlns:xlink="http://www.w3.org/1999/xlink" x="0px" y="0px"
	 viewBox="0 0 595.3 841.9" style="enable-background:new 0 0 595.3 841.9;" xml:space="preserve">
<style type="text/css">
	.st0{fill:none;stroke:#1A1A1A;stroke-width:1.4994;stroke-linecap:round;stroke-linejoin:round;stroke-miterlimit:4.9981;}
	
		.st1{fill:none;stroke:#1A1A1A;stroke-width:0.9996;stroke-linecap:round;stroke-linejoin:round;stroke-miterlimit:4.9981;stroke-dasharray:5.9977;}
	.st2{fill:#1A1A1A;stroke:#1A1A1A;stroke-width:0.9996;stroke-linecap:round;stroke-linejoin:round;stroke-miterlimit:4.9981;}
	.st3{fill:#FFFFFF;stroke:#1A1A1A;stroke-width:0.9996;stroke-linecap:round;stroke-linejoin:round;stroke-miterlimit:4.9981;}
	.st4{fill:none;stroke:#1A1A1A;stroke-width:0.9996;stroke-linecap:round;stroke-linejoin:round;stroke-miterlimit:4.9981;}
	.st5{fill:none;stroke:#FFFFFF;stroke-width:0.9996;stroke-linecap:round;stroke-linejoin:round;stroke-miterlimit:4.9981;}
	
		.st6{fill:none;stroke:#B3B3B3;stroke-width:0.9996;stroke-linecap:round;stroke-linejoin:round;stroke-miterlimit:4.9981;stroke-dasharray:5.9977;}
	.st7{fill:#86A1BB;stroke:#1A1A1A;stroke-width:0.9996;stroke-linecap:round;stroke-linejoin:round;stroke-miterlimit:4.9981;}
	.st8{fill:#FFFFFF;stroke:#1A1A1A;stroke-width:0.9996;stroke-linecap:round;stroke-linejoin:round;stroke-miterlimit:4.9979;}
	.st9{fill:#FFFFFF;stroke:#1A1A1A;stroke-width:0.9996;stroke-linecap:round;stroke-linejoin:round;stroke-miterlimit:4.998;}
</style>
<path class="st0" d="M155.3,541.6c-55.4,28-66.7,48-65.3,61.7c2.3,21.9,38,30.6,38.7,57.6c0.5,19.7-18,24.7-15.4,39.6
	c4.8,27.4,75.7,53,115.7,30.1c18.8-10.7,13.8-22.5,32.9-34.1c8-4.8,28-14.4,113.6,4c57.9,12.4,59.8,19.2,83.9,18
	c28.4-1.4,78.3-13.3,90.8-47.6c15.1-41.5-35.7-85.7-43-91.7c-63-53-172.8-47-200.6-9c-5,6.9-9.1,17.2-19.1,19
	c-16.1,2.9-27.4-20-50.4-34.6C221.9,545.1,197,536.3,155.3,541.6L155.3,541.6z"/>
<path class="st1" d="M167.2,494.9c-11.7-40-10.4-85.2-3.3-133.9C189.4,184.7,380.8,86,380.8,86"/>
<path class="st2" d="M278.8,155.1c0,0,29.3,36.8,32.5,36.8c0.5-6,61.8-97.3,71.2-106.4C345.2,94.7,278.8,155.1,278.8,155.1
	L278.8,155.1z"/>
<polygon class="st3" points="311.4,191.9 290.8,160.2 384.6,84.6 "/>
<path class="st3" d="M278.8,155.1c0,0,82.2-64.2,105.7-70.5c-29.3,6.8-102.4,41.5-136.8,81.9C259.9,156,273.1,151.5,278.8,155.1z"/>
<path class="st3" d="M284.9,157c0,0,60.4-54,99.6-72.4c-52.6,46.5-78.9,76.4-91.9,113.6C286.9,183,284.9,157,284.9,157z"/>
<path class="st3" d="M384.7,458c-4.2-17.2,4.6-36.7,20.3-45c5.7-3,12.7-4.9,16.1-10.5c2.7-4.3,2.6-9.9,1.6-15
	c-0.6-3.2-1.5-6.4-1.7-9.6c-0.1-3.2,0.5-6.7,2.7-9.1c3.7-4,10.2-3.6,15.3-1.8c5.1,1.8,18.7,14.9,10.9,22.6c-1.6,1.6-4.3,2.6-4.9,4.8
	c-0.8,2.8,1.8,5.6,4.5,6.8c2.7,1.2,5.8,1.6,8.2,3.3c4.9,3.6,4.1,11.9-0.4,16.1c-4.5,4.1-11.3,4.8-17.3,3.8
	c-4.9-0.8-10.4-2.5-14.5,0.3c-2.1,1.4-3.4,3.9-4.1,6.4c-2,6.3-1.3,13.3-2.8,19.8c-1.5,6.5-6.5,13.2-13.1,12.9"/>
<path class="st3" d="M390.1,459.2c2.4-11,5.8-21.9,12-31.3c6.2-9.4,15.5-17.1,26.5-19.5"/>
<path class="st3" d="M394.7,460.9c2.1-8.4,8.2-15.8,16.1-19.4"/>
<path class="st3" d="M425.1,483.3c-0.6-4.5-1.3-9-0.7-13.5c0.6-4.5,2.7-9,6.4-11.5c3.4-2.3,7.6-2.7,11.6-3.4c4-0.7,8.3-1.8,10.8-5
	c4.4-5.6,1.5-14.7,5.9-20.3c3-3.8,8.4-4.7,13.3-4.7c2.8,0,5.7,0.2,8.4,1.2c2.7,1,5.1,2.8,6.4,5.4c2.1,4.4,0.2,9.9-3.4,13.1
	c-2.5,2.2-5.7,3.7-7.7,6.4c-2.9,4.1-2.2,9.7-1,14.6c1.2,4.9,2.9,10,1.5,14.8c-1.4,4.8-5.6,8.3-10.3,10c-4.7,1.6-9.8,1.6-14.8,1.2
	c-6.2-0.5-12.3-1.5-18.3-3.2"/>
<path class="st4" d="M427.7,484.4c-0.1-5.5,3.1-10.7,7.2-14.4c4.1-3.7,9.1-6.2,13.8-9.1c4.7-2.9,9.3-6.3,12-11.2
	c3-5.4,3.3-11.8,3.4-18"/>
<path class="st4" d="M430.6,486c1.4-5.1,6-8.6,10.8-10.8c4.8-2.1,10-3.4,14.6-6c4.6-2.6,8.6-7.1,8.6-12.4"/>
<path class="st4" d="M430.1,488.1c3.6-3.1,8.6-4,13.3-4.2c4.7-0.2,9.6,0.1,14.2-1c4.6-1.2,9.1-4.3,10.2-8.9"/>
<path class="st2" d="M412,526.1c1.7-4.2,7.2-5.9,11.7-4.8s8,4.3,11.3,7.5s6.5,6.6,10.7,8.5c3.6,1.6,7.7,1.8,11.7,1.9
	c4.6,0.1,9.7,0,13.3-2.9c3.9-3.2,4.9-8.9,5.2-14c0.1-1.9,0.1-3.9-0.3-5.8c-0.4-1.9-1.5-3.7-3.1-4.7c-2.3-1.4-5.3-1.1-8-0.9
	c-2.7,0.1-5.9-0.1-7.5-2.3c-1.2-1.6-1.2-3.9-2-5.8c-1.7-4.2-7.3-5.8-11.7-4.5c-4.4,1.2-7.9,4.5-11.1,7.8"/>
<path class="st5" d="M429.7,510.8c3.8-3.6,9.9-4.7,14.7-2.5c2.6,1.2,4.8,3.1,7.2,4.7c2.4,1.5,5.4,2.6,8.2,1.7"/>
<path class="st5" d="M425.6,515c5.5-1.6,11.7-1.1,16.9,1.4c3.1,1.5,5.9,3.8,9,5.5c3.1,1.7,6.7,2.8,10.1,1.9"/>
<path class="st5" d="M423.4,518c3.9-0.2,7.6,1.7,10.8,4c3.1,2.3,5.9,5.1,9.3,7.1c6,3.6,13.7,4.3,20.3,1.9"/>
<path class="st3" d="M117.3,515.4c15.2,30.4,37.8,30,62.6,49.1c12.4,9.5,29.5,26.5,25.3,43.9c-1.8,7.7-8.7,13-15.5,16.4
	c-10.1,5-20.8,6.5-29.6,14.3c-8.6,7.5-13.8,20.2-9.2,30.7c4.3,9.8,15.4,14.7,26,17c23.4,5.2,45.8,12.7,69.3,17.6
	c24.1,5,48.6,8.7,73.3,10.1c46.8,2.7,95.5-2.5,137.4-24.4c91.1-63.2-34.4-121.5-95.6-131.2c-6.1-1.2-13.9-4-13.5-10.2
	c10.6-27,84.5,0.1,91.1-45C437.6,415.9,86.4,417.9,117.3,515.4L117.3,515.4z"/>
<path class="st2" d="M366.6,566.7c0-0.6,0.7-1.2,1.5-1.8c-1.9-0.4-3.4-0.9-4-1.6c-1.5-1.8-8.2,8-8.2,8s1.7,1.7,4.3,4.2
	C363.4,573.8,365.4,570.5,366.6,566.7L366.6,566.7z"/>
<path class="st2" d="M392.5,598.1c-0.9-3.9-11-29.6-14.4-31c-0.4-0.1-0.9-0.3-1.5-0.5c6.5,10.4,10.7,22.3,14.8,33.9c0,0,0,0.1,0,0.1
	C392.4,600.1,392.8,599.2,392.5,598.1L392.5,598.1z"/>
<path class="st3" d="M376.6,566.6c-2.4-0.6-5.8-1.1-8.5-1.7c-0.8,0.6-1.5,1.2-1.5,1.8c-1.1,3.8-3.2,7.1-6.3,8.8
	c5.9,5.8,16.3,16.2,20.1,20.9c3.9,4.9,8.9,5.6,11.1,4.2c0,0,0-0.1,0-0.1C387.3,589,383.1,577,376.6,566.6L376.6,566.6z"/>
<path class="st3" d="M283.9,427c0,0,8.1,44.1,7.2,59.2l0,10.1c0,0,53.4,39.8,77.3,64.2c-4.7,9.2-11.8,13-11.8,13
	s-87.4-44.9-96.9-63.1c-9.4-18.2-24.8-74.9-25-98.4L283.9,427z"/>
<path class="st6" d="M260.2,415.2c0,0-3.7,72.4,26.5,97.8c30.2,25.4,71.6,51.8,71.6,51.8"/>
<path class="st2" d="M239.4,440.7c0,0,6.7-2.1,10.5-1.9c3.6,0.2,26.6,4.1,34.8-8.6l-4.2-11.6L234.8,407
	C234.8,407,238.2,439.3,239.4,440.7z"/>
<path class="st3" d="M348.3,415.2c0,0.2,8.8,4.7,12.6,4.5c3.8-0.1,1.5,5.5-3.7,4.1c3.4,3.1,7.5,9.8,7.7,13.7c0.1,3.9-5,5.5-7.7,4
	c-2.6-1.5-13.8-11.2-16.7-23.5C345.7,415.5,348.3,415.2,348.3,415.2z"/>
<path class="st7" d="M304.4,314.4c0,0,4.1,43.2,18.2,63.6c14.2,20.4,25.9,36,25.9,36s1.9,2.7-2.2,5.7c-4.1,3-7.7,2-11.3-1.4
	c-3.6-3.4-34.6-29.8-42.3-56.2L304.4,314.4L304.4,314.4z"/>
<path class="st3" d="M228.2,401.7c10.6,40.2,35.6,43.4,57.8,27.9c22.9-16,9.9-62.9,9.9-62.9l-33.5-7.5l-11.9,6.7l-29.6,17"/>
<path class="st2" d="M252.4,376.8c0,0,8.8-8,15.6-8.1c6.7-0.1,21.8,5.5,28,4.8l1.6,0.3l-1.8-9c0,0-34.1-8.1-34.1-7.7
	c0,0.4-10.8,16.3-10.8,16.8S252.4,376.8,252.4,376.8L252.4,376.8z"/>
<path class="st3" d="M298.9,252.3c-1.5,6-11.7,18.7-11.7,18.7s25.7,6,26.4,6c0.7,0,21.8-46.3,21.8-46.3l-5.6-4.6c0,0-8-2.7-23.1,2.1
	c-15,4.9-17.3,10.3-14.8,14.3c2.5,4.1,4.8,10.7,10.6,10.8c5.8,0.1,8.1-0.6,8.1-0.6"/>
<path class="st2" d="M297.7,256.7c0,0,12-0.4,12.5-3.5c-9.1,2.5-11.2,0-11.2,0L297.7,256.7z"/>
<path class="st2" d="M303.5,299.2c5.9-3.9,14.8-4.5,19.7,1.2c5.6,7.4,3.2,17.8,5.8,26.3c10.9,31.5,30.5,38.2,61.7,32.2
	c0.8-22.6-31.5-28.8-31.6-51.1c0.1-6.6,3.9-12.7,4-19.2c0-6.3-3.3-12-6-17.8c-3.7-7.9-6.4-16.3-7.9-24.9
	c-1.2-9.7-4.1-24.2-16.2-24.3c-1.8,0.1-3.8,0.9-4.2,2.6c-0.6,2.3,1.9,4.5,1.6,6.8c-0.4,3.3-6,4.4-5.7,7.7c0.1,1.2,1.1,2.2,1.6,3.3
	c1.8,8.7-9.3,9.1-14.3,4.3c0,0,3.5,8.9,2.4,11.5c-1.1,2.6-15,18.1-15,18.1L303.5,299.2L303.5,299.2z"/>
<path class="st7" d="M247.7,365.1c8.8-13.3,7.9-33.1,3.1-44.5c-4.8-11.4-3.3-17.5-0.2-24.6s31.5-27.3,31.5-27.3s6.3-2.4,11.2-0.2
	c4.9,2.2,14.1,2.5,14.1,2.5s1.6,41.4-2.8,60.4c-4.4,19-1.3,36.1-9.8,37.2s-15.3-4.2-21.4-4.9c-9.4-1-14.4,3.8-18.3,10.2
	C251.2,380.3,247.7,365.1,247.7,365.1L247.7,365.1z"/>
<path class="st3" d="M380.8,200.5c0,0,4.1-12.5,9.5-18.9c5.4-6.4,10.8-7.9,8.7-3.7c-2,4.2-1.7,4.9,1.7,3.6
	c3.4-1.3,16.7-4.9,15.6,0.6s-8.1,12.7-18.7,12.9c-4.2,0-9.4,8.8-9.4,8.8L380.8,200.5L380.8,200.5z"/>
<path class="st7" d="M295,299.5c0,0-2.8-3.8-2.2-11.9c0.6-8,4.6-14.2,7.5-15.2s38.8-17.9,52.4-30.8s27.6-43.4,27.6-43.4l10.1,4.8
	c0,0-14.7,37.7-31.9,55.5c-17.2,17.7-43.1,44.5-53.7,46.3"/>
<path class="st2" d="M224.9,505.5c-7.9,6.9-13.9,13.9-19.9,23.4c-1.1,1.9-3.7,4.1-6.2,3.4c1.1,2.6,4.8,1.1,6.9-0.8
	c5-4.7,4.6-9.4,12.3-15.9c6-5.1,8.2-7.1,7.9-11.1C225.6,504.9,225.3,505.3,224.9,505.5L224.9,505.5z"/>
<path class="st3" d="M205,528.9c5.9-9.4,11.9-16.4,19.9-23.4c0.4-0.2,0.7-0.6,0.9-1c-0.1-1.1-0.4-2.4-0.8-3.9
	c-0.7-2.4-1.1-4.5-1.2-6.1c-4,1.2-7.9,3.2-12.5,2.7c-0.6,2.1-1.7,4.6-3.3,6.8c-4,5.3-6.9,14.3-9.1,23.1c-0.6,2.5-0.5,4.2-0.1,5.2
	C201.2,533,203.9,530.8,205,528.9L205,528.9z"/>
<path class="st2" d="M223.8,494.4c-0.2-3,0.2-4.6,0.2-4.6l-11.7,2.1c0,0-0.1,2.3-1,5.2C215.9,497.6,219.7,495.6,223.8,494.4z"/>
<ellipse class="st2" cx="424.4" cy="254" rx="6.9" ry="6.9"/>
<polygon class="st3" points="472.7,334.2 457.6,355.6 421.3,330 436.4,308.6 447,332.1 "/>
<polygon class="st2" points="472.7,334.2 447,332.1 436.4,308.6 "/>
<polygon class="st3" points="141.9,322.2 95.2,348.7 99.6,317.9 109.2,318.8 113.3,310.1 113.3,310.1 "/>
<polygon class="st3" points="141.9,322.2 113.3,310.1 123.2,289 "/>
<polygon class="st3" points="99.6,317.9 95.2,348.7 76.4,315.5 "/>
<polygon class="st3" points="123.2,289 113.3,310.1 113.3,310.1 109.2,318.8 99.6,317.9 76.4,315.5 "/>
<line class="st4" x1="99.6" y1="317.9" x2="99.6" y2="317.9"/>
<path class="st1" d="M271.1,668.2c0,0-73.1-68.6-103.9-173.3"/>
<rect x="268.7" y="607.9" class="st3" width="115" height="68.4"/>
<rect x="268.7" y="676.3" class="st2" width="115" height="5.9"/>
<polygon class="st2" points="329.2,649.5 268.7,607.9 383.7,607.9 "/>
<polygon class="st3" points="329.2,647.7 268.7,606.2 383.7,606.2 "/>
<line class="st4" x1="268.7" y1="682.3" x2="312.8" y2="638.2"/>
<line class="st4" x1="342.9" y1="639" x2="383.7" y2="682.3"/>
<ellipse transform="matrix(0.6399 -0.7684 0.7684 0.6399 -423.4229 320.4852)" class="st8" cx="130.3" cy="612.1" rx="19.7" ry="14.3"/>
<ellipse transform="matrix(0.8858 -0.464 0.464 0.8858 -226.7354 302.575)" class="st9" cx="501.5" cy="612" rx="6.8" ry="9.4"/>
<path class="st0" d="M438.6,563c0,0,27.2,8.2,41,28.9"/>
<path class="st3" d="M257.3,383.6c0,0-13.1-70.9-46.8-50.3s-1.7,161.6-1.7,161.6l17.4-3.2c0,0,7.3-74,0-101.9"/>
<path class="st6" d="M217.7,489.8c0,0-13.8-134.6,3.1-134.9c17-0.3,23.7,63.4,44.6,60.4c20.9-3,10-29.9,12.2-39.7"/>
</svg>
