<?xml version="1.0" encoding="utf-8"?>
<!-- Generator: Adobe Illustrator 28.1.0, SVG Export Plug-In . SVG Version: 6.00 Build 0)  -->
<svg version="1.1" id="Layer_1" xmlns="http://www.w3.org/2000/svg" xmlns:xlink="http://www.w3.org/1999/xlink" x="0px" y="0px"
	 viewBox="0 0 238.1 180.5" style="enable-background:new 0 0 238.1 180.5;" xml:space="preserve">
<style type="text/css">
	.st0{fill:none;}
	.st1{fill:#FFFFFF;}
	.st2{fill:#1A1A1A;}
	.st3{fill:#FCD03C;}
	.st4{fill:#FFA64D;}
</style>
<path class="st0" d="M186.3,169.9c-0.1,0-0.2,0.1-0.3,0.1c-0.6,0.1-1.3,0.3-2.2,0.5c-0.8,0.2-1.6,0.3-2.4,0.5
	c-0.2,0-0.5,0.1-0.7,0.1c0,1-0.1,1.8-0.1,2.2h14.7c-2.2-0.4-4.3-1-5.7-2C187.5,169.6,187,169.7,186.3,169.9L186.3,169.9z"/>
<polygon class="st0" points="209.2,111.9 206.2,106.2 197.7,122.8 203.6,122.8 "/>
<path class="st0" d="M71.7,108.7c-2.5-0.8-4.3-3.1-4.3-5.9c0-2.8,1.8-5.1,4.3-5.9c-0.3,0-0.6-0.1-0.9-0.1c-3.3,0-6,2.7-6,6
	s2.7,6,6,6C71.1,108.8,71.4,108.8,71.7,108.7z"/>
<polygon class="st0" points="13.3,143.8 4,143.8 4,145.6 15.8,145.6 15.8,133.8 13.3,133.8 "/>
<path class="st1" d="M74.2,5.4c-0.1,0-0.2,0-0.2,0v0.9c0,0.1,0.2,1.4,0.9,1.9c0.4,0.2,0.8,0.2,1.4,0c0.1,0,0.2-0.1,0.3-0.1
	C75.7,6.7,74.9,5.6,74.2,5.4z"/>
<path class="st1" d="M77.1,19.3c-1.9-1.3-1-3.1-0.4-4.4c0.3-0.6,0.5-1.1,0.5-1.5v0c-0.3-0.1-0.6-0.2-0.9-0.3c-0.6-0.2-1-0.2-1.4,0
	C74.1,13.6,74,14.9,74,15v5.2c0,0,0,0.1,0,0.1c0.6,1,1,1.9,1.3,2.8c0.6-0.3,1.3-0.7,2-0.8c0.5-0.1,1-0.1,1.5-0.1l-1.4-2.8
	C77.3,19.4,77.2,19.4,77.1,19.3z"/>
<path class="st2" d="M74,5.4c0.1,0,0.2,0,0.2,0c0.6,0.2,1.5,1.2,2.4,2.7C76.7,8.1,76.9,8.1,77,8c-0.9-1.6-1.9-2.8-2.7-3
	c-0.1,0-0.3-0.1-0.4-0.1L74,5.4L74,5.4z"/>
<path class="st2" d="M75.2,23.1c-0.3-0.8-0.7-1.8-1.3-2.8c0,0.1-0.1,0.1-0.2,0.1h-0.3c0.7,1.1,1.1,2.1,1.4,2.9
	C75,23.3,75.1,23.2,75.2,23.1z"/>
<path class="st3" d="M76.9,8.7c0.2-0.2,0.4-0.2,0.7-0.2c0.6,0.1,1.3,0.9,2.4,2.8c0-0.2,0-0.4,0-0.7c0-1.2-0.3-1.9-0.8-2.2
	c-0.5-0.4-1.4-0.3-2.7,0.2c-0.7,0.3-1.3,0.3-1.8-0.1c-1-0.6-1.1-2.2-1.1-2.3v0V0.5h-5.2c-0.1,0-1.4,0.2-1.9,0.9
	c-0.2,0.4-0.2,0.8,0,1.4C67,4.3,67,5.3,66.6,6c-0.4,0.6-1.3,0.9-2.6,1c-1.3,0-2.2-0.3-2.6-1C61,5.3,61,4.3,61.6,2.8
	c0.2-0.6,0.2-1,0-1.4c-0.5-0.8-1.8-0.9-1.9-0.9h-5.6v5.8v0c0,0.1-0.1,1.7-1.1,2.3c-0.5,0.3-1.1,0.3-1.8,0.1
	c-1.3-0.5-2.2-0.6-2.7-0.2c-0.5,0.3-0.7,1-0.8,2.2c0,1.2,0.3,1.9,0.8,2.2c0.5,0.4,1.4,0.3,2.7-0.2c0.7-0.3,1.3-0.3,1.8,0.1
	c1,0.6,1.1,2.2,1.1,2.3v0v5h5.6c0.1,0,1.4-0.2,1.9-0.9c0.2-0.4,0.2-0.8,0-1.4c-0.6-1.5-0.6-2.5-0.2-3.1c0.4-0.6,1.3-0.9,2.6-1h0
	c1.3,0,2.2,0.3,2.6,1c0.5,0.7,0.4,1.7-0.2,3.1c-0.2,0.6-0.2,1,0,1.4c0.5,0.8,1.8,0.9,1.9,0.9h5.2v-5v0c0-0.1,0.1-1.7,1.1-2.3
	c0.5-0.3,1.1-0.3,1.8-0.1c0.2,0.1,0.5,0.2,0.7,0.2c-0.1-0.3-0.2-0.7-0.3-1C76.6,10.6,76.2,9.3,76.9,8.7z"/>
<path class="st2" d="M73.8,20.5c0.1,0,0.1,0,0.2-0.1c0,0,0-0.1,0-0.1V15c0-0.1,0.2-1.4,0.9-1.9c0.4-0.2,0.8-0.2,1.4,0
	c0.3,0.1,0.6,0.2,0.9,0.3c0-0.2,0-0.3-0.1-0.5c-0.2-0.1-0.4-0.1-0.7-0.2c-0.7-0.3-1.3-0.3-1.8,0.1c-1,0.6-1.1,2.2-1.1,2.3v0v5h-5.2
	c-0.1,0-1.4-0.2-1.9-0.9c-0.2-0.4-0.2-0.8,0-1.4c0.6-1.5,0.6-2.4,0.2-3.1c-0.4-0.6-1.3-0.9-2.6-1h0c-1.3,0-2.2,0.3-2.6,1
	c-0.5,0.7-0.4,1.7,0.2,3.1c0.2,0.6,0.2,1,0,1.4C61,19.8,59.7,20,59.6,20H54v-5v0c0-0.1-0.1-1.7-1.1-2.3c-0.5-0.3-1.1-0.3-1.8-0.1
	c-1.3,0.5-2.2,0.6-2.7,0.2c-0.5-0.3-0.7-1-0.8-2.2c0-1.2,0.3-1.9,0.8-2.2c0.5-0.4,1.4-0.3,2.7,0.2c0.7,0.3,1.3,0.3,1.8-0.1
	C53.9,8,54,6.4,54,6.3v0V0.5h5.6c0.1,0,1.5,0.2,1.9,0.9c0.2,0.4,0.2,0.8,0,1.4C61,4.3,60.9,5.3,61.4,6c0.4,0.6,1.3,0.9,2.6,1
	c1.3,0,2.2-0.3,2.6-1c0.5-0.7,0.4-1.7-0.2-3.1c-0.2-0.6-0.2-1,0-1.4c0.5-0.8,1.8-0.9,1.9-0.9h5.2v5.8v0c0,0.1,0.1,1.7,1.1,2.3
	c0.5,0.3,1.1,0.3,1.8,0.1c1.3-0.5,2.2-0.6,2.7-0.2c0.5,0.3,0.7,1,0.8,2.2c0,0.2,0,0.5,0,0.7c0.1,0.2,0.2,0.4,0.3,0.6
	c0.1-0.4,0.1-0.8,0.2-1.3c0-1.3-0.3-2.2-1-2.6C78.9,7.7,78.1,7.7,77,8c-0.1,0-0.3,0.1-0.4,0.2c-0.1,0-0.2,0.1-0.3,0.1
	c-0.6,0.2-1,0.2-1.4,0C74.1,7.8,74,6.4,74,6.3V0.2C74,0.1,73.9,0,73.7,0h-5.4h0c-0.1,0-1.7,0.1-2.3,1.1C65.7,1.7,65.7,2.3,66,3
	c0.5,1.3,0.6,2.2,0.2,2.7c-0.3,0.5-1,0.7-2.2,0.8c-1.2,0-1.9-0.3-2.2-0.8C61.4,5.2,61.5,4.3,62,3c0.3-0.7,0.3-1.3-0.1-1.8
	c-0.6-1-2.2-1.1-2.3-1.2h0h-5.8c-0.1,0-0.2,0.1-0.2,0.2v6.1c0,0.1-0.2,1.4-0.9,1.9c-0.4,0.2-0.8,0.2-1.4,0c-1.5-0.6-2.5-0.6-3.1-0.2
	c-0.6,0.4-0.9,1.3-1,2.6c0,1.3,0.3,2.2,1,2.6c0.7,0.5,1.7,0.4,3.1-0.2c0.6-0.2,1-0.2,1.4,0c0.8,0.5,0.9,1.8,0.9,1.9v5.2
	c0,0.1,0.1,0.2,0.2,0.2h5.8h0c0.1,0,1.7-0.1,2.3-1.2c0.3-0.5,0.3-1.1,0.1-1.8c-0.5-1.3-0.6-2.2-0.2-2.7c0.3-0.5,1-0.7,2.2-0.8
	c1.2,0,1.9,0.3,2.2,0.8c0.4,0.5,0.3,1.4-0.2,2.7c-0.3,0.7-0.3,1.3,0.1,1.8c0.6,1,2.2,1.1,2.3,1.1h0L73.8,20.5L73.8,20.5z"/>
<path class="st1" d="M80.9,14.2c-1.3-2.6-2.6-5.1-3.5-5.3c-0.1,0-0.2,0-0.3,0.1c-0.5,0.4-0.1,1.7,0.2,2.7c0.2,0.6,0.3,1.2,0.4,1.7
	c0,0.5-0.2,1.1-0.6,1.7c-0.6,1.3-1.3,2.8,0.2,3.9c0.1,0.1,0.1,0.2,0.1,0.3c0,0-0.1,0.1-0.1,0.1l1.4,2.8c0.8,0,1.6,0.2,2.4,0.5
	C81.7,20.1,82.1,16.5,80.9,14.2z"/>
<path class="st2" d="M79.9,11.3c-1.1-1.9-1.8-2.7-2.4-2.8c-0.2-0.1-0.5,0-0.7,0.2c-0.7,0.6-0.3,1.9,0,3.2c0.1,0.4,0.2,0.7,0.3,1
	c0,0.2,0.1,0.3,0.1,0.5v0c0,0.4-0.2,0.9-0.5,1.5c-0.6,1.3-1.5,3.1,0.4,4.4c0.1,0,0.2,0,0.2,0c0,0,0.1,0,0.1-0.1
	c0.1-0.1,0-0.2-0.1-0.3c-1.5-1.1-0.8-2.5-0.2-3.9c0.3-0.7,0.6-1.2,0.6-1.7c0-0.5-0.2-1-0.4-1.7c-0.3-1-0.7-2.3-0.2-2.7
	C77.2,9,77.3,8.9,77.5,9c0.8,0.2,2.2,2.6,3.5,5.3c1.1,2.3,0.8,5.9,0.3,8.5c0.2,0.1,0.3,0.1,0.4,0.2c0.5-2.7,0.9-6.5-0.3-8.9
	c-0.4-0.8-0.7-1.5-1.1-2C80.2,11.7,80,11.5,79.9,11.3z"/>
<path class="st4" d="M14.5,173.8h81.6c0,0,0-0.1,0-0.2H14.5C14.5,173.7,14.5,173.8,14.5,173.8z"/>
<path d="M166.3,156.9c-0.8-4.1-2.4-7.9-4.4-11.3c0.5,4.4,1,8,1.2,10.3C164.2,156.2,165.3,156.6,166.3,156.9z"/>
<path d="M144.5,150.7c-2.5-3.9-4.8-8.5-6.8-13.2c-3.8,2.2-10.6,6-18.4,9.5C127.7,147.2,136.4,148.8,144.5,150.7z"/>
<path d="M60.5,173h30.9c-0.4,0-0.7-0.1-1.1-0.2c-5.3-0.8-12.4-2.7-16.4-6.6c-2-2-3.1-4.4-3.1-7.2c0-3,2-7.4,5.9-13.2
	C67.8,151.8,61.5,161.6,60.5,173L60.5,173z"/>
<path d="M161.8,145.2l0,0.4c2,3.5,3.6,7.3,4.4,11.3c0.2,0.1,0.3,0.1,0.5,0.2c-0.8-4.2-2.4-8.2-4.6-11.9
	C162.1,145.2,161.9,145.2,161.8,145.2z"/>
<path d="M91.4,173H60.5c1-11.3,7.2-21.2,16.2-27.1c0.2-0.3,0.5-0.7,0.7-1.1c-2,1.2-3.9,2.7-5.7,4.3c-6.8,6.3-11,14.9-11.7,24.1v0
	h33.4C92.8,173.1,92.1,173,91.4,173L91.4,173z"/>
<path d="M183.5,170L183.5,170c0-0.1,0-0.1,0-0.2c0,0,0-0.1,0-0.1c0,0,0-0.1,0-0.1c0,0,0-0.1,0-0.1c0,0,0-0.1,0-0.1l0-0.1
	c0,0,0-0.1,0-0.1l0-0.1c0,0,0-0.1,0-0.1c0,0,0-0.1-0.1-0.1c0,0,0-0.1,0-0.1c0,0,0-0.1-0.1-0.1c0,0,0-0.1-0.1-0.1c0,0,0-0.1-0.1-0.1
	c0,0,0-0.1-0.1-0.1c0,0,0-0.1-0.1-0.1c0,0,0-0.1-0.1-0.1c0,0-0.1-0.1-0.1-0.1c0,0,0-0.1-0.1-0.1c0,0-0.1-0.1-0.1-0.1
	c0,0,0-0.1-0.1-0.1c0,0-0.1-0.1-0.1-0.1c0,0,0-0.1-0.1-0.1c0,0-0.1-0.1-0.1-0.1c0,0-0.1-0.1-0.1-0.1c0,0-0.1-0.1-0.1-0.1
	c0,0-0.1-0.1-0.1-0.1c0,0-0.1-0.1-0.1-0.1c0,0-0.1-0.1-0.1-0.1c0,0-0.1-0.1-0.1-0.1c0,0-0.1-0.1-0.1-0.1c0,0-0.1-0.1-0.1-0.1
	c0,0-0.1-0.1-0.1-0.1c0,0-0.1-0.1-0.1-0.1l-0.1-0.1c0,0-0.1-0.1-0.1-0.1l-0.1-0.1c0,0-0.1-0.1-0.1-0.1l-0.1-0.1c0,0-0.1-0.1-0.1-0.1
	l-0.1-0.1c0,0-0.1-0.1-0.1-0.1c0.4,1.8,0.5,3.9,0.5,5.5c0.2,0,0.4-0.1,0.6-0.1C182,170.3,182.8,170.2,183.5,170L183.5,170z"/>
<path d="M183.8,170.5c-0.1,0-0.1,0-0.2,0c0,0-0.1-0.1-0.1-0.2c0-0.1,0-0.1,0-0.2c-0.7,0.1-1.4,0.3-2.2,0.4c-0.2,0-0.4,0.1-0.6,0.1
	v0.5c0.2,0,0.5-0.1,0.7-0.1C182.2,170.8,183,170.6,183.8,170.5L183.8,170.5z"/>
<path d="M182.5,167.7c0,0,0,0.1,0.1,0.1C182.5,167.8,182.5,167.7,182.5,167.7z"/>
<path d="M181.6,166.5c0,0,0.1,0.1,0.1,0.1C181.6,166.6,181.6,166.6,181.6,166.5z"/>
<path d="M182,167c0,0,0.1,0.1,0.1,0.1C182,167.1,182,167,182,167z"/>
<path d="M181.4,166.3c0,0,0.1,0.1,0.1,0.1C181.4,166.4,181.4,166.4,181.4,166.3z"/>
<path d="M182.1,167.2c0,0,0,0.1,0.1,0.1C182.2,167.3,182.1,167.3,182.1,167.2z"/>
<path d="M182.3,167.5c0,0,0,0.1,0.1,0.1C182.3,167.5,182.3,167.5,182.3,167.5z"/>
<path d="M181.8,166.8c0,0,0.1,0.1,0.1,0.1C181.8,166.8,181.8,166.8,181.8,166.8z"/>
<path d="M180.5,165.4L180.5,165.4L180.5,165.4z"/>
<path d="M180.3,165.2L180.3,165.2L180.3,165.2z"/>
<path d="M180.7,165.7L180.7,165.7L180.7,165.7z"/>
<path d="M180.9,165.9L180.9,165.9L180.9,165.9z"/>
<path d="M181.1,166.1c0,0,0.1,0.1,0.1,0.1C181.2,166.2,181.2,166.1,181.1,166.1z"/>
<path d="M182.6,167.9c0,0,0,0.1,0.1,0.1C182.6,168,182.6,168,182.6,167.9z"/>
<path d="M183.1,168.9c0,0,0,0.1,0,0.1C183.1,169,183.1,168.9,183.1,168.9z"/>
<path d="M183.2,169.1c0,0,0,0.1,0,0.1C183.2,169.2,183.2,169.2,183.2,169.1z"/>
<path d="M183.3,169.4c0,0,0,0.1,0,0.1C183.3,169.5,183.3,169.4,183.3,169.4z"/>
<path d="M183.4,169.6c0,0,0,0.1,0,0.1C183.4,169.7,183.4,169.7,183.4,169.6z"/>
<path d="M183.4,169.9c0,0,0,0.1,0,0.1C183.5,170,183.4,169.9,183.4,169.9z"/>
<path d="M183,168.7c0,0,0,0.1,0,0.1C183,168.7,183,168.7,183,168.7z"/>
<path d="M182.8,168.2c0,0,0,0.1,0.1,0.1C182.8,168.3,182.8,168.2,182.8,168.2z"/>
<path d="M182.9,168.4c0,0,0,0.1,0.1,0.1C182.9,168.5,182.9,168.5,182.9,168.4z"/>
<path d="M205.8,167.3c-1.5-1-3.6-2.2-5.4-3.2c-1.8-1-3.3-2-4.1-2.5c-0.8-0.6-1.5-1.4-2.2-2.2c-1.5-1.6-2.8-3.2-4.6-2.5l0.6,0.6
	c0.1,0.1,0.2,0.2,0.3,0.3l0.2,0.2c0.1,0.1,0.2,0.2,0.3,0.3l0.2,0.2c0.1,0.1,0.2,0.2,0.3,0.3c0.1,0.1,0.2,0.2,0.2,0.2l0.3,0.3
	c0.1,0.1,0.2,0.2,0.2,0.2l0.3,0.3c0.1,0.1,0.2,0.2,0.2,0.2c0.1,0.1,0.2,0.2,0.3,0.3c0.1,0.1,0.2,0.2,0.3,0.2
	c0.1,0.1,0.2,0.2,0.3,0.3c0.1,0.1,0.2,0.2,0.3,0.2s0.2,0.2,0.3,0.3c0.1,0.1,0.2,0.2,0.3,0.2c0.1,0.1,0.2,0.2,0.3,0.3
	c0.1,0.1,0.2,0.2,0.3,0.2c0.1,0.1,0.2,0.2,0.3,0.3c0.1,0.1,0.2,0.2,0.3,0.2c0.1,0.1,0.2,0.2,0.3,0.2c0.1,0.1,0.2,0.2,0.3,0.2
	c0.1,0.1,0.2,0.2,0.3,0.2s0.2,0.2,0.3,0.2s0.2,0.2,0.3,0.2s0.2,0.2,0.3,0.2l0.3,0.2c0.1,0.1,0.2,0.2,0.3,0.2
	c0.1,0.1,0.2,0.1,0.3,0.2c0.1,0.1,0.2,0.2,0.3,0.3c0.1,0.1,0.2,0.1,0.3,0.2l0.4,0.3c0.1,0.1,0.2,0.1,0.2,0.2l0.5,0.3
	c0,0,0.1,0.1,0.2,0.1c0.2,0.1,0.4,0.3,0.6,0.4c0,0,0.1,0.1,0.2,0.1c0.2,0.1,0.3,0.2,0.5,0.3c0.1,0,0.2,0.1,0.2,0.2
	c0.1,0.1,0.3,0.2,0.4,0.3c0.1,0,0.2,0.1,0.3,0.2c0.1,0.1,0.3,0.2,0.4,0.2c0.1,0.1,0.2,0.1,0.3,0.2c0.1,0.1,0.3,0.2,0.4,0.2
	c0.1,0,0.2,0.1,0.3,0.2c0.1,0.1,0.3,0.1,0.4,0.2c0.1,0,0.2,0.1,0.3,0.2c0.1,0.1,0.2,0.1,0.4,0.2c0.1,0,0.2,0.1,0.3,0.2
	c0.1,0.1,0.2,0.1,0.4,0.2c0.1,0,0.2,0.1,0.3,0.2c0.1,0.1,0.2,0.1,0.4,0.2c0.1,0,0.2,0.1,0.3,0.1c0.1,0.1,0.2,0.1,0.4,0.2
	c0.1,0,0.2,0.1,0.3,0.1c0.1,0.1,0.2,0.1,0.4,0.2c0.1,0,0.2,0.1,0.3,0.1c0.1,0,0.3,0.1,0.4,0.2c0.1,0,0.2,0.1,0.3,0.1
	c0.1,0,0.2,0.1,0.3,0.1c0.1-0.3,0.1-0.6,0.1-0.9C208.3,169.3,208.1,168.8,205.8,167.3L205.8,167.3z"/>
<path d="M189.2,156.6l0.2,0.2c1.8-0.7,3.2,0.8,4.6,2.5c0.7,0.8,1.4,1.6,2.2,2.2c0.8,0.6,2.3,1.5,4.1,2.5c1.8,1,3.8,2.2,5.4,3.2
	c2.3,1.5,2.6,2,2.6,2.2c0,0.3,0,0.6-0.1,0.9c0.1,0,0.1,0.1,0.2,0.1c0.1,0,0.1,0.1,0.1,0.1c0,0.1,0,0.1,0,0.2
	c0.2-0.4,0.3-0.8,0.3-1.3c0-1-3.4-3-8.2-5.8c-1.8-1-3.3-1.9-4.1-2.5c-0.8-0.6-1.5-1.4-2.2-2.1c-1.6-1.8-3.2-3.6-5.4-2.5
	C189.1,156.5,189.2,156.6,189.2,156.6z"/>
<path d="M199.8,165.9c0,0-0.1-0.1-0.2-0.1C199.7,165.8,199.8,165.9,199.8,165.9z"/>
<path d="M200.6,166.4c0,0-0.1-0.1-0.2-0.1C200.5,166.4,200.5,166.4,200.6,166.4z"/>
<path d="M202.6,167.7c-0.1,0-0.2-0.1-0.3-0.2C202.4,167.6,202.5,167.6,202.6,167.7z"/>
<path d="M198.6,165c-0.1-0.1-0.2-0.1-0.3-0.2C198.4,164.9,198.5,165,198.6,165z"/>
<path d="M191.9,159.3l-0.3-0.3L191.9,159.3z"/>
<path d="M206.6,169.8c-0.1,0-0.2-0.1-0.3-0.1C206.4,169.7,206.5,169.7,206.6,169.8z"/>
<path d="M199.2,165.5c-0.1-0.1-0.2-0.1-0.2-0.2C199,165.3,199.1,165.4,199.2,165.5z"/>
<path d="M201.3,166.9c-0.1,0-0.2-0.1-0.2-0.2C201.1,166.8,201.2,166.8,201.3,166.9z"/>
<path d="M190.3,157.8l-0.3-0.3L190.3,157.8z"/>
<path d="M201.9,167.3c-0.1,0-0.2-0.1-0.3-0.2C201.8,167.2,201.8,167.3,201.9,167.3z"/>
<path d="M203.2,168.1c-0.1,0-0.2-0.1-0.3-0.2C203,168,203.1,168,203.2,168.1z"/>
<path d="M193.5,160.7c-0.1-0.1-0.2-0.2-0.3-0.3C193.3,160.6,193.4,160.6,193.5,160.7z"/>
<path d="M189.9,157.3l-0.3-0.3C189.7,157.1,189.8,157.2,189.9,157.3z"/>
<path d="M207.9,170.3c-0.1,0-0.2-0.1-0.3-0.1C207.7,170.3,207.8,170.3,207.9,170.3z"/>
<path d="M191.4,158.8c-0.1-0.1-0.2-0.2-0.3-0.3C191.2,158.6,191.3,158.7,191.4,158.8z"/>
<path d="M205.9,169.5c-0.1,0-0.2-0.1-0.3-0.1C205.7,169.4,205.8,169.4,205.9,169.5z"/>
<path d="M190.8,158.3c-0.1-0.1-0.2-0.2-0.3-0.3C190.7,158.1,190.8,158.2,190.8,158.3z"/>
<path d="M207.2,170.1c-0.1,0-0.2-0.1-0.3-0.1C207,170,207.1,170,207.2,170.1z"/>
<path d="M195.7,162.7c-0.1-0.1-0.2-0.2-0.3-0.2C195.5,162.5,195.6,162.6,195.7,162.7z"/>
<path d="M196.2,163.2c-0.1-0.1-0.2-0.2-0.3-0.2C196.1,163,196.1,163.1,196.2,163.2z"/>
<path d="M192.9,160.2c-0.1-0.1-0.2-0.2-0.3-0.3C192.7,160.1,192.8,160.1,192.9,160.2z"/>
<path d="M194,161.2c-0.1-0.1-0.2-0.2-0.3-0.3C193.8,161.1,193.9,161.1,194,161.2z"/>
<path d="M194.6,161.7c-0.1-0.1-0.2-0.2-0.3-0.3C194.4,161.6,194.5,161.6,194.6,161.7z"/>
<path d="M196.8,163.6c-0.1-0.1-0.2-0.2-0.3-0.2C196.6,163.5,196.7,163.6,196.8,163.6z"/>
<path d="M195.1,162.2c-0.1-0.1-0.2-0.2-0.3-0.3C194.9,162,195,162.1,195.1,162.2z"/>
<path d="M204.5,168.8c-0.1,0-0.2-0.1-0.3-0.2C204.3,168.7,204.4,168.7,204.5,168.8z"/>
<path d="M203.9,168.4c-0.1,0-0.2-0.1-0.3-0.2C203.7,168.3,203.8,168.4,203.9,168.4z"/>
<path d="M192.4,159.7l-0.3-0.3C192.2,159.6,192.3,159.7,192.4,159.7z"/>
<path d="M198,164.6c-0.1-0.1-0.2-0.1-0.3-0.2C197.8,164.4,197.9,164.5,198,164.6z"/>
<path d="M205.2,169.1c-0.1,0-0.2-0.1-0.3-0.2C205,169,205.1,169.1,205.2,169.1z"/>
<path d="M197.4,164.1l-0.3-0.2C197.2,164,197.3,164,197.4,164.1z"/>
<path class="st3" d="M183.9,170c0.8-0.2,1.4-0.3,1.9-0.4c0.1,0,0.2-0.1,0.3-0.1c0.3-0.1,0.5-0.1,0.8-0.1c0.6,0,1.4,0.3,2.9,1.5
	c2.8,1.9,8.2,2.5,12.3,2.3c3.2-0.2,5.2-1,5.9-2.3c-7.5-2.8-13.8-8.5-19-13.8c-0.5,0.3-0.9,0.7-1.4,1.3c-2.2,2.7-5.7,3.5-8.5,3.7
	c0.4,0.7,0.7,1.4,0.9,2.2C181.9,166,183.5,167.9,183.9,170L183.9,170z"/>
<path class="st2" d="M179.1,162.1c2.8-0.2,6.3-1,8.5-3.7c0.5-0.6,1-1,1.4-1.3c5.2,5.3,11.5,11,19,13.8c-0.7,1.3-2.7,2.1-5.9,2.3
	c-4.1,0.2-9.5-0.4-12.3-2.3c-1.5-1.2-2.2-1.5-2.9-1.5c-0.3,0-0.5,0.1-0.8,0.1c-0.1,0-0.2,0.1-0.3,0.1c-0.5,0.1-1.1,0.3-1.9,0.4
	c-0.4-2.1-2-3.9-3.9-5.6c0.1,0.3,0.1,0.5,0.2,0.8c0,0,0.1,0.1,0.1,0.1l0.1,0.1c0,0,0.1,0.1,0.1,0.1l0.1,0.1c0,0,0.1,0.1,0.1,0.1
	l0.3,0.3c0,0,0.1,0.1,0.1,0.1c0,0,0.1,0.1,0.1,0.1l0.1,0.1c0,0,0.1,0.1,0.1,0.1s0.1,0.1,0.1,0.1c0,0,0.1,0.1,0.1,0.1
	c0,0,0.1,0.1,0.1,0.1c0,0,0.1,0.1,0.1,0.1c0,0,0.1,0.1,0.1,0.1c0,0,0.1,0.1,0.1,0.1c0,0,0.1,0.1,0.1,0.1c0,0,0,0.1,0.1,0.1
	c0,0,0.1,0.1,0.1,0.1c0,0,0,0.1,0.1,0.1c0,0,0.1,0.1,0.1,0.1c0,0,0,0.1,0.1,0.1c0,0,0.1,0.1,0.1,0.1c0,0,0,0.1,0.1,0.1
	c0,0,0,0.1,0.1,0.1c0,0,0,0.1,0.1,0.1c0,0,0,0.1,0.1,0.1c0,0,0,0.1,0.1,0.1c0,0,0,0.1,0.1,0.1c0,0,0,0.1,0,0.1c0,0,0,0.1,0.1,0.1
	c0,0,0,0.1,0,0.1l0,0.1c0,0,0,0.1,0,0.1l0,0.1c0,0,0,0.1,0,0.1c0,0,0,0.1,0,0.1c0,0,0,0.1,0,0.1c0,0,0,0.1,0,0.1c0,0,0,0.1,0,0.1v0
	c0,0.1,0,0.1,0,0.2c0,0.1,0,0.1,0.1,0.2c0,0,0.1,0,0.2,0c0.9-0.2,1.6-0.3,2.2-0.5c0.1,0,0.2-0.1,0.3-0.1c0.8-0.2,1.2-0.3,3.3,1.3
	c1.4,1,3.5,1.6,5.7,2h9.7c1.9-0.4,3.1-1.2,3.5-2.4c0-0.1,0-0.1,0-0.2c0-0.1-0.1-0.1-0.1-0.1c-0.1,0-0.1-0.1-0.2-0.1
	c-0.1,0-0.2-0.1-0.3-0.1c-0.1,0-0.2-0.1-0.3-0.1c-0.1,0-0.3-0.1-0.4-0.2c-0.1,0-0.2-0.1-0.3-0.1c-0.1-0.1-0.3-0.1-0.4-0.2
	c-0.1,0-0.2-0.1-0.3-0.1c-0.1-0.1-0.3-0.1-0.4-0.2c-0.1,0-0.2-0.1-0.3-0.1c-0.1-0.1-0.2-0.1-0.4-0.2c-0.1,0-0.2-0.1-0.3-0.2
	c-0.1-0.1-0.2-0.1-0.4-0.2c-0.1,0-0.2-0.1-0.3-0.2c-0.1-0.1-0.2-0.1-0.4-0.2c-0.1,0-0.2-0.1-0.3-0.2c-0.1-0.1-0.3-0.1-0.4-0.2
	c-0.1,0-0.2-0.1-0.3-0.2c-0.1-0.1-0.3-0.2-0.4-0.2c-0.1,0-0.2-0.1-0.3-0.2c-0.1-0.1-0.3-0.2-0.4-0.2c-0.1,0-0.2-0.1-0.3-0.2
	c-0.1-0.1-0.3-0.2-0.4-0.3c-0.1,0-0.2-0.1-0.2-0.2c-0.2-0.1-0.3-0.2-0.5-0.3c0,0-0.1-0.1-0.2-0.1c-0.2-0.1-0.4-0.3-0.6-0.4
	c0,0-0.1-0.1-0.2-0.1l-0.5-0.3c-0.1-0.1-0.2-0.1-0.2-0.2l-0.4-0.3c-0.1-0.1-0.2-0.1-0.3-0.2c-0.1-0.1-0.2-0.2-0.3-0.3
	c-0.1-0.1-0.2-0.1-0.3-0.2c-0.1-0.1-0.2-0.2-0.3-0.2l-0.3-0.2c-0.1-0.1-0.2-0.2-0.3-0.2c-0.1-0.1-0.2-0.2-0.3-0.2
	c-0.1-0.1-0.2-0.2-0.3-0.2c-0.1-0.1-0.2-0.2-0.3-0.2s-0.2-0.2-0.3-0.2c-0.1-0.1-0.2-0.2-0.3-0.2s-0.2-0.2-0.3-0.2
	c-0.1-0.1-0.2-0.2-0.3-0.3c-0.1-0.1-0.2-0.2-0.3-0.2s-0.2-0.2-0.3-0.3c-0.1-0.1-0.2-0.2-0.3-0.2c-0.1-0.1-0.2-0.2-0.3-0.3
	c-0.1-0.1-0.2-0.2-0.3-0.2s-0.2-0.2-0.3-0.3c-0.1-0.1-0.2-0.2-0.3-0.2s-0.2-0.2-0.3-0.3c-0.1-0.1-0.2-0.2-0.2-0.2l-0.3-0.3
	c-0.1-0.1-0.2-0.2-0.2-0.2l-0.3-0.3c-0.1-0.1-0.2-0.2-0.2-0.2c-0.1-0.1-0.2-0.2-0.3-0.3l-0.2-0.2c-0.1-0.1-0.2-0.2-0.3-0.3l-1.3-1.3
	c-0.1-0.1-0.2-0.1-0.3,0c-0.6,0.3-1.1,0.8-1.7,1.5c-2.2,2.6-5.7,3.4-8.4,3.5C178.9,161.8,179,161.9,179.1,162.1L179.1,162.1z"/>
<path class="st1" d="M161.8,144.7c2-0.1,3.9-0.5,5.8-1.1c7-2.4,11.6-8.1,12.4-15.4c0.9-8.5-5.8-19.3-11.6-26.9
	c-3.2-4.2-6.6-8-9-10.6c-0.8,2-2,3.4-3.8,4.3C156.9,104.1,159.9,128.9,161.8,144.7L161.8,144.7z"/>
<path class="st2" d="M159.4,90.7c2.5,2.6,5.8,6.3,9,10.6c5.8,7.6,12.5,18.4,11.6,26.9c-0.8,7.3-5.4,13-12.4,15.4
	c-1.9,0.7-3.8,1-5.8,1.1c0,0.2,0,0.3,0,0.4c0.1,0,0.3,0,0.4,0c1.9-0.1,3.8-0.5,5.5-1.1c3.4-1.2,6.4-3.2,8.6-5.9
	c2.3-2.8,3.7-6.2,4.1-9.9c0.4-3.8-0.6-8.4-3.1-13.7c-2-4.2-4.8-8.7-8.6-13.6c-3.3-4.3-6.7-8.2-9.2-10.8
	C159.5,90.4,159.5,90.6,159.4,90.7L159.4,90.7z"/>
<path class="st1" d="M98.9,149.6c0-0.1,0-0.3,0.2-0.3c5.9-1.9,12.4-2.5,19.1-2.4c8.2-3.6,15.4-7.6,19.3-9.9
	c-2.6-6-4.7-12.3-6.4-17.8c-2.4-7.9-4.3-15.5-5.5-21.5c-1.3,0.1-2.7,0.3-4.1,0.4h0h0c-0.4-0.1-0.9-0.2-1.3-0.4
	c-3.2,3.1-13.6,13.4-23.9,24.8C80,140.4,71.4,153,71.3,159L98.9,149.6z"/>
<path class="st2" d="M119.3,147c7.8-3.5,14.6-7.3,18.4-9.5c-0.1-0.1-0.1-0.3-0.2-0.4c-3.9,2.3-11.1,6.3-19.3,9.9
	C118.6,146.9,118.9,146.9,119.3,147z"/>
<path class="st2" d="M76.7,145.8c-3.9,5.9-5.9,10.3-5.9,13.2c0-0.1,0.1-0.2,0.2-0.2c0.1,0,0.2,0.1,0.2,0.2h0
	c0.1-5.9,8.7-18.5,24.8-36.5c10.3-11.4,20.7-21.7,23.9-24.8c-0.2-0.1-0.3-0.1-0.4-0.2c-3.3,3.3-13.6,13.4-23.8,24.7
	c-4.7,5.2-8.8,10-12.2,14.2c-2.4,3-4.5,5.8-6.2,8.3C77.2,145.1,77,145.5,76.7,145.8L76.7,145.8z"/>
<path class="st1" d="M176.4,160.5c-1.9-0.5-4.8-1.4-8.5-2.6c-1.5-0.5-3.1-1-4.8-1.5c0.2,1.5,0.3,2.3,0.3,2.4c0,0.1,0,0.4-0.3,0.8
	l0.6,2.3l2.2,9.3l0.5,2h13.7C180.2,171.6,180.8,161.3,176.4,160.5L176.4,160.5z"/>
<path class="st1" d="M71.3,159.1c0,2.6,1,4.9,2.9,6.8c7.4,7.4,26.5,7.3,26.7,7.3h30.6c0-0.3,0.1-1.1,0.3-2c0.6-2.4,2.7-6.5,9.4-7.7
	c7.7-1.4,10.5-1.4,11.4-1.4l-0.3-1.5l-0.3-1.1c0,0-0.1,0-0.1,0c0,0-0.1,0-0.1,0c-2.5-2.1-4.9-4.9-7-8.2c-14.9-3.6-32-5.8-45.7-1.4
	c-0.1,0-0.2,0-0.3-0.1L71.3,159.1L71.3,159.1C71.3,159,71.3,159,71.3,159.1L71.3,159.1z"/>
<path class="st2" d="M100.9,173.7L100.9,173.7L100.9,173.7z"/>
<path class="st2" d="M144.5,150.7c-8.1-1.9-16.8-3.4-25.2-3.7c-0.3,0-0.7,0-1.1,0c-6.7-0.1-13.2,0.5-19.1,2.4
	c-0.1,0-0.2,0.2-0.2,0.3c0,0.1,0.2,0.2,0.3,0.1c13.7-4.4,30.8-2.1,45.7,1.4C144.8,151,144.6,150.8,144.5,150.7L144.5,150.7z"/>
<path class="st2" d="M166.3,156.9c-1-0.3-2.1-0.7-3.2-1c0,0.2,0,0.3,0.1,0.5c1.7,0.5,3.3,1,4.8,1.5c3.7,1.2,6.5,2.1,8.5,2.6
	c4.3,0.8,3.8,11.1,3.7,12.7h0.5c0-0.4,0.1-1.2,0.1-2.2v-0.5c0-1.6-0.1-3.6-0.5-5.5c-0.1-0.3-0.1-0.5-0.2-0.8
	c-0.2-0.8-0.5-1.6-0.9-2.2c-0.1-0.2-0.2-0.3-0.3-0.4c-0.6-0.8-1.3-1.4-2.3-1.6c-1.9-0.5-4.8-1.4-8.4-2.6c-0.4-0.1-0.8-0.3-1.3-0.4
	C166.6,157,166.4,156.9,166.3,156.9z"/>
<path class="st2" d="M101,173.2c-0.2,0-19.3,0.1-26.7-7.3c-2-1.9-2.9-4.2-2.9-6.8c0,0,0,0,0-0.1c0-0.1-0.1-0.2-0.2-0.2
	c-0.1,0-0.2,0.1-0.2,0.2c0,2.7,1,5.1,3.1,7.2c4,3.9,11.1,5.7,16.4,6.6c0.4,0.1,0.7,0.1,1.1,0.2c0.7,0.1,1.4,0.2,2,0.3h38.1
	C131.6,173.2,101,173.2,101,173.2z"/>
<polygon class="st2" points="166.4,173.2 166.4,173.2 180.1,173.2 "/>
<rect x="134.6" y="176.6" class="st3" width="41.3" height="2.5"/>
<rect x="110.4" y="177.2" class="st3" width="16.5" height="2.5"/>
<path class="st3" d="M41.9,66.6l7.2,7.2l1-1l-8.7-8.7c0,0,0,0.1,0.1,0.2C41.9,65.3,42,66,41.9,66.6z"/>
<rect x="61.1" y="179.2" class="st3" width="17" height="1.4"/>
<rect x="91.4" y="175.6" class="st3" width="17" height="1.4"/>
<rect x="221.1" y="165" class="st3" width="17" height="1.4"/>
<rect x="216.5" y="160.8" class="st3" width="17" height="1.4"/>
<rect x="46.1" y="79.1" transform="matrix(0.7071 -0.7071 0.7071 0.7071 -48.2431 58.7551)" class="st3" width="1.4" height="17"/>
<rect x="30.9" y="94.9" transform="matrix(0.7071 -0.7071 0.7071 0.7071 -63.8538 52.5887)" class="st3" width="1.4" height="17"/>
<polygon class="st3" points="173.8,37.6 169.7,37.6 169.7,33.5 165.6,33.5 165.6,29.5 161.5,29.5 160.3,30.9 164.4,30.9 164.4,34.9 
	168.5,34.9 168.5,39 172.6,39 172.6,43.1 176.6,43.1 176.6,47.2 177.8,45.8 177.8,41.7 173.8,41.7 "/>
<path class="st3" d="M215.3,123.1c0,0.1-0.1,0.1-0.2,0.1h-11.7l-1.3,2.6h17.7l-8.9-17.3l-1.5,2.9l5.9,11.5
	C215.3,123,215.3,123.1,215.3,123.1z"/>
<polygon class="st3" points="214.7,122.8 209.2,111.9 203.6,122.8 "/>
<path class="st3" d="M3.7,133.3h9.5v-2.8H0v13.2h3.5v-10.2C3.5,133.4,3.6,133.3,3.7,133.3z"/>
<rect x="4" y="133.8" class="st3" width="9.3" height="10"/>
<path d="M159.8,22.7h3.8v3.8c0,0.1,0.1,0.2,0.2,0.2h3.8v3.8c0,0.1,0.1,0.2,0.2,0.2h3.8v3.9c0,0.1,0.1,0.2,0.2,0.2h3.8v3.8
	c0,0.1,0.1,0.2,0.2,0.2c0.1,0,0.2-0.1,0.2-0.2v-4.1c0-0.1-0.1-0.2-0.2-0.2h-3.8v-3.9c0-0.1-0.1-0.2-0.2-0.2h-3.8v-3.8
	c0-0.1-0.1-0.2-0.2-0.2h-3.8v-3.8c0-0.1-0.1-0.2-0.2-0.2h-4.1c-0.1,0-0.2,0.1-0.2,0.2C159.6,22.6,159.7,22.7,159.8,22.7z"/>
<path d="M16.2,145.8v-12.3c0-0.1-0.1-0.2-0.2-0.2H3.7c-0.1,0-0.2,0.1-0.2,0.2v12.3c0,0.1,0.1,0.2,0.2,0.2H16
	C16.1,146,16.2,145.9,16.2,145.8z M15.8,145.6H4v-11.8h11.8V145.6z"/>
<path d="M197.4,123.2h17.7c0.1,0,0.2,0,0.2-0.1c0-0.1,0-0.2,0-0.2l-5.9-11.5l-3-5.8c0-0.1-0.1-0.1-0.2-0.1c-0.1,0-0.2,0-0.2,0.1
	l-8.9,17.3c0,0.1,0,0.2,0,0.2C197.2,123.2,197.3,123.2,197.4,123.2L197.4,123.2z M206.2,106.2l2.9,5.7l5.6,10.9h-17L206.2,106.2z"/>
<path d="M37.5,106.2c0,0,0.1,0.1,0.2,0.1c0.1,0,0.1,0,0.2-0.1c0.1-0.1,0.1-0.2,0-0.3L27.7,95.7c-0.1-0.1-0.2-0.1-0.3,0
	s-0.1,0.2,0,0.3L37.5,106.2z"/>
<path d="M49.6,70.1c0,0,0.1,0.1,0.2,0.1c0.1,0,0.1,0,0.2-0.1c0.1-0.1,0.1-0.2,0-0.3l-7.5-7.5c-0.1,0.1-0.3,0.1-0.4,0.2
	C41.9,62.5,49.6,70.1,49.6,70.1z"/>
<path d="M42.6,79.9c-0.1-0.1-0.2-0.1-0.3,0s-0.1,0.2,0,0.3l10.2,10.2c0,0,0.1,0.1,0.2,0.1s0.1,0,0.2-0.1c0.1-0.1,0.1-0.2,0-0.3
	L42.6,79.9z"/>
<path class="st3" d="M67.4,102.9c0,2.8,1.8,5.1,4.3,5.9c2.8-0.4,5-2.9,5-5.9s-2.2-5.4-5-5.9C69.2,97.8,67.4,100.1,67.4,102.9z"/>
<path class="st3" d="M77.2,102.9c0,2.9-1.9,5.3-4.5,6.1c0.3,0,0.6,0.1,0.9,0.1c3.4,0,6.2-2.8,6.2-6.2s-2.8-6.2-6.2-6.2
	c-0.3,0-0.6,0-0.9,0.1C75.3,97.6,77.2,100,77.2,102.9L77.2,102.9z"/>
<path d="M72.7,109c2.6-0.8,4.5-3.3,4.5-6.1c0-2.9-1.9-5.3-4.5-6.1c-0.6-0.2-1.3-0.3-1.9-0.3c-3.5,0-6.4,2.9-6.4,6.4
	c0,3.5,2.9,6.4,6.4,6.4C71.5,109.3,72.1,109.2,72.7,109L72.7,109z M64.8,102.9c0-3.3,2.7-6,6-6c0.3,0,0.6,0,0.9,0.1
	c2.8,0.4,5,2.9,5,5.9s-2.2,5.4-5,5.9c-0.3,0-0.6,0.1-0.9,0.1C67.5,108.8,64.8,106.1,64.8,102.9z"/>
<path d="M155.1,91.9c0.1,0.5,0.2,1.4,0.4,2.6c1.9-1,3.2-2.6,3.9-5.2c0.3-1.1,0.1-2.5-0.5-4c-2.1-0.5-4.3-1.2-6.7-2.1
	C153.3,85.4,154.3,88.2,155.1,91.9L155.1,91.9z"/>
<path d="M123.6,85.8c0-0.7,0.1-1.3,0.2-2.1c-0.2-0.1-0.5-0.3-0.7-0.4c-1.1-1-1.2-3-0.2-5.9c1.5-4.6,4.7-6.8,7.4-7.9
	c-2.8-7.2-7.9-15.2-9.8-18c-0.2,0-0.4,0-0.6,0c0.6,1.5,1.1,2.3,1.2,2.3c0.1,0.1,0,0.2-0.1,0.3c-0.2,0.1-3,2.1-5.7,2.1
	c-1,0-2.1-0.3-2.9-1.1c0,0-0.1-0.1-0.1-0.1l-0.6-2.6c-0.1,0-0.2,0-0.3,0.1c0,2.8,0.3,16.5,8.3,31c0.9,1.4,0.2,3.9-1.8,6.3
	c-0.8,0.9-1.7,1.8-2.7,2.6c1.8,3,3.8,4.8,6.1,5.3c1.4-0.2,2.7-0.3,4-0.4C124.2,91.4,123.6,87.1,123.6,85.8z"/>
<path d="M120.1,97.7c0.4,0.2,0.9,0.3,1.3,0.4h0h0c1.4-0.2,2.8-0.3,4.1-0.4l-0.1-0.5c-1.3,0.1-2.6,0.3-4,0.4
	c-2.2-0.5-4.3-2.3-6.1-5.3c-0.1,0.1-0.3,0.2-0.4,0.3c1.4,2.3,3,3.9,4.7,4.8C119.8,97.6,119.9,97.7,120.1,97.7z"/>
<path d="M158.9,85.3c0.6,1.5,0.8,2.9,0.5,4c-0.8,2.6-2,4.2-3.9,5.2c0,0.2,0,0.3,0.1,0.5c1.8-0.9,3-2.3,3.8-4.3
	c0.1-0.2,0.1-0.3,0.2-0.5c0.1-0.3,0.2-0.5,0.3-0.8c0.3-1.1,0.2-2.4-0.4-4C159.3,85.4,159.1,85.4,158.9,85.3L158.9,85.3z"/>
<path d="M119.9,51.5c0.2,0,0.4,0,0.6,0c-0.1-0.2-0.2-0.3-0.3-0.4c-0.2,0-0.3,0-0.5,0C119.8,51.2,119.9,51.4,119.9,51.5z"/>
<path d="M111.5,52.5c0.1,0,0.2,0,0.3-0.1l-0.1-0.5l-0.2,0V52.5z"/>
<path class="st1" d="M111.7,37.7c0-0.6,0.1-1.1,0-1.4c-4.2-0.3-6.5-1.9-7.7-3.2c-0.2-0.2-0.4-0.4-0.5-0.6c-0.9,3.9-0.1,8.9,0.8,11.6
	c0.3,0.9,0.8,1.5,1.5,1.7c1.8,0.7,4.4-1,4.5-1c0.1,0,0.1,0,0.2,0c0.1,0,0.1,0.1,0.1,0.2l2.2,9.9c2.5,2.3,6.8-0.3,7.8-1
	c-0.4-0.6-1.5-2.8-2.3-6.1C110.9,46.2,111.4,40.5,111.7,37.7z"/>
<path class="st2" d="M111.8,52.4l0.6,2.6c0,0,0,0.1,0.1,0.1c0.8,0.8,1.8,1.1,2.9,1.1c2.7,0,5.5-2,5.7-2.1c0.1-0.1,0.1-0.2,0.1-0.3
	c0,0-0.5-0.8-1.2-2.3c-0.1-0.1-0.1-0.3-0.2-0.4c-0.3-0.9-0.7-2-1-3.3c-0.1,0-0.2,0-0.3,0h0h0c0,0-0.1,0-0.1,0c0.8,3.3,2,5.5,2.3,6.1
	c-0.9,0.6-5.3,3.2-7.8,1l-2.2-9.9c0-0.1-0.1-0.1-0.1-0.2c-0.1,0-0.2,0-0.2,0c0,0-2.7,1.7-4.5,1c-0.7-0.2-1.2-0.8-1.5-1.7
	c-0.9-2.7-1.7-7.6-0.8-11.6c-0.1-0.2-0.3-0.3-0.3-0.5c-0.2,0.9-0.4,2-0.4,3.1c-0.2,3.3,0.5,7,1.2,9.1c0.3,1,0.9,1.7,1.8,2
	c1.7,0.6,3.8-0.5,4.6-0.9l1.5,6.6C111.7,52,111.8,52.4,111.8,52.4z"/>
<path d="M233.8,173.2h-67.4l0,0.2c0,0.1,0,0.1,0,0.2c0,0.1-0.1,0.1-0.2,0.1h-34.4c-0.1,0-0.2-0.1-0.2-0.2v-0.2H13.3
	c-0.1,0-0.2,0.1-0.2,0.2s0.1,0.2,0.2,0.2h220.5c0.1,0,0.2-0.1,0.2-0.2S234,173.2,233.8,173.2L233.8,173.2z"/>
<path class="st3" d="M104.7,67.3c0.1,0,0.2,0.1,0.2,0.2c0,0.1,0,0.2-0.2,0.3c0,0-0.4,0.1-1,0.2c0,0.6,0,1.2,0,1.9
	c-0.2,8,0.5,18.5,4.3,23.9c3.4,1.2,7.3-1.2,9.7-4.2c1.8-2.3,2.5-4.6,1.8-5.8c0,0,0,0,0,0c-4.7-8.5-6.7-16.7-7.6-22.1
	c-0.8-5-0.8-8.6-0.8-9.5c-0.9-0.1-2.4-0.2-3.7-0.1L104.7,67.3L104.7,67.3z"/>
<path class="st2" d="M115.3,92.4c1-0.7,1.9-1.6,2.7-2.6c2-2.5,2.7-5,1.8-6.3c-8-14.5-8.3-28.2-8.3-31c0-0.2,0-0.4,0-0.5v0
	c0-0.1-0.1-0.2-0.2-0.2c-0.3,0-2.2-0.3-3.8-0.2c0.1,0,0.1,0.1,0.1,0.2c0,0.1-0.1,0.2-0.2,0.2h0l0,0c1.3-0.1,2.8,0,3.7,0.1
	c0,0.9,0,4.4,0.8,9.5c0.9,5.4,2.9,13.5,7.6,22.1c0,0,0,0,0,0c0.8,1.2,0.1,3.5-1.8,5.8c-2.4,3-6.3,5.4-9.7,4.2
	c-3.8-5.3-4.4-15.9-4.3-23.9c0-0.6,0-1.3,0-1.9c-0.1,0-0.3,0.1-0.5,0.1c0,0.6,0,1.2,0,1.8c-0.2,8,0.5,18.8,4.4,24.2
	c0,0,0.1,0.1,0.1,0.1c0.7,0.3,1.4,0.4,2.1,0.4c1.8,0,3.5-0.7,5.1-1.8C115.1,92.6,115.2,92.5,115.3,92.4z"/>
<path class="st3" d="M135.3,68.4c0.3-0.4,0.7-0.7,1.2-0.8c1.2-0.3,6.8,0.5,12.6,1.5c-4.7-2.9-8-5.7-10-7.3c-0.1-0.1-0.1-0.2,0-0.3
	l-14.9-11.5c-1.5-0.1-3.2,0.3-3.8,0.5c1.1,1.6,7.3,10.8,10.4,18.9c0.1,0,0.2-0.1,0.3-0.1C132.7,68.7,134.2,68.5,135.3,68.4z"/>
<path class="st2" d="M120.5,51.5c1.9,2.8,7.1,10.8,9.8,18c0.1-0.1,0.3-0.1,0.4-0.2c-3.1-8.1-9.3-17.3-10.4-18.9
	c0.7-0.2,2.3-0.6,3.8-0.5l0,0c-0.2,0-0.2,0-0.3,0c-0.1,0-0.2-0.1-0.2-0.2c0-0.1,0.1-0.2,0.2-0.2c-1.9,0-3.8,0.6-3.9,0.7
	c-0.1,0-0.1,0.1-0.2,0.2c0,0.1,0,0.1,0,0.2c0,0,0.2,0.2,0.4,0.6C120.3,51.2,120.4,51.3,120.5,51.5z"/>
<path class="st3" d="M139.1,61.4c0.1-0.1,0.2-0.1,0.3,0c2.1,1.7,5.7,4.8,10.9,7.9c6.2,1.1,12.1,2.2,12.6,2.3c0.1,0,0.2,0.1,0.2,0.2
	l14.3-2.5c-6.8-11.5-20.9-16.2-31.6-18.1c-10.6-1.9-20-1.5-21.7-1.4l0,0L139.1,61.4C139.1,61.4,139.1,61.4,139.1,61.4z"/>
<path class="st2" d="M123.6,49.7c0,0.1,0.1,0.2,0.2,0.2c0,0,0.1,0,0.3,0c1.7-0.1,11-0.5,21.7,1.4c10.7,1.9,24.7,6.6,31.6,18.1
	c0-0.1,0-0.2,0.1-0.2c0.1-0.1,0.2,0,0.3,0.1c0.1,0.1,0.1,0.2,0.2,0.3c0-0.1-0.1-0.1-0.1-0.2c-3-5.2-7.8-9.6-14.1-12.8
	c-5-2.6-11.1-4.5-18-5.8c-11.6-2.1-21.8-1.4-22-1.3C123.7,49.4,123.6,49.5,123.6,49.7z"/>
<path class="st2" d="M150.3,69.3c-5.1-3.1-8.8-6.2-10.9-7.9c-0.1-0.1-0.2-0.1-0.3,0s-0.1,0.2,0,0.3c2,1.6,5.3,4.4,10,7.3
	C149.5,69.2,149.9,69.2,150.3,69.3L150.3,69.3z"/>
<path class="st3" d="M163,71.9c0,0.1-0.2,0.2-0.3,0.2c-8.2-1.6-24.3-4.6-26.2-4c-0.2,0.1-0.5,0.2-0.7,0.3c0.5,0,0.8,0,0.9,0
	c0.1,0,0.1,0,0.2,0.1c0,0,2.4,3,0.6,5.4c2.4,0.1,5.3,0.7,8.6,2.1c0.1,0,1.6,0.7,3.5,3.1c0.7,0.9,1.5,2,2.3,3.6
	c10.9,4,18.9,4.7,23.2,2.2c2.6-1.5,3.9-4.2,3.9-8.1c0-1.6-0.4-5.6-1.6-7.4c0,0,0-0.1,0-0.1L163,71.9L163,71.9L163,71.9z"/>
<path class="st2" d="M177.4,69.1c-0.1,0-0.1,0.1-0.1,0.2c0,0,0,0.1,0,0.1c1.2,1.8,1.6,5.8,1.6,7.4c0,3.8-1.3,6.6-3.9,8.1
	c-4.3,2.5-12.3,1.7-23.2-2.2c0.1,0.2,0.2,0.4,0.3,0.6c2.4,0.8,4.6,1.5,6.7,2.1c0.2,0,0.3,0.1,0.5,0.1c1.6,0.4,3.1,0.7,4.5,0.9
	c1.7,0.3,3.2,0.4,4.6,0.4c2.8,0,5.1-0.5,6.8-1.5c2.7-1.6,4.1-4.4,4.1-8.5c0-1.3-0.3-5.1-1.5-7.3c-0.1-0.1-0.1-0.2-0.2-0.3
	C177.7,69.1,177.5,69,177.4,69.1L177.4,69.1z"/>
<path class="st2" d="M162.8,72.1c0.1,0,0.2-0.1,0.3-0.2v-0.1c0-0.1-0.1-0.2-0.2-0.2c-0.5-0.1-6.4-1.3-12.6-2.3
	c-0.4-0.1-0.8-0.1-1.2-0.2c-5.8-1-11.4-1.8-12.6-1.5c-0.5,0.1-0.8,0.4-1.2,0.8c0.2,0,0.5,0,0.7,0c0.2-0.2,0.4-0.3,0.7-0.3
	C138.5,67.5,154.5,70.5,162.8,72.1L162.8,72.1z"/>
<path class="st3" d="M82.4,30.2c0.3-1.6,0.6-2.9,0.9-3.9c0.2-0.7,0.3-1.3,0.3-1.5c-2.2-1.7-4.3-2.3-6.3-1.9
	c-2.7,0.5-4.2,2.9-4.3,3.2c-0.1,0.2-0.6,1.8-1.2,4.2C73.1,29.4,77.5,27.3,82.4,30.2z"/>
<path class="st3" d="M100.8,52.9c-6.7,1-16,2.5-19.2,1c-1.8-0.8-2.2-4.8-1.2-12.3c0.5-3.8,1.3-7.8,1.9-10.9
	c-5.7-3.4-10.6,0-10.6,0.1l-0.1,0c-2.8,10-8,32.5-0.9,36.9c9.2,5.7,33.6-0.2,33.9-0.3c0,0,0.1,0,0.1,0l2.6-15.3l0,0
	C106.1,52,103.6,52.4,100.8,52.9z"/>
<path class="st2" d="M103.7,68c0.6-0.1,1-0.2,1-0.2c0.1,0,0.2-0.2,0.2-0.3c0-0.1-0.1-0.2-0.2-0.2h-0.1c-0.2,0.1-24.6,6-33.9,0.3
	c-7.1-4.4-1.9-26.8,0.9-36.9c-0.1,0-0.2,0-0.2-0.1c-0.1-0.1,0-0.2,0-0.3c0,0,0.1-0.1,0.3-0.2c0.7-2.4,1.2-4,1.2-4.2
	c0.2-0.2,1.7-2.6,4.3-3.2c1.9-0.4,4,0.3,6.3,1.9c-0.1,0.3-0.2,0.8-0.3,1.5c-0.2,1-0.5,2.3-0.9,3.9c0.1,0.1,0.2,0.1,0.3,0.2
	c0.1,0.1,0.1,0.2,0.1,0.3c0,0.1-0.1,0.1-0.2,0.1c0,0-0.1,0-0.1,0c0,0-0.1-0.1-0.1-0.1c-0.7,3.2-1.4,7.2-1.9,10.9
	c-1,7.5-0.6,11.5,1.2,12.3c3.2,1.4,12.4,0,19.2-1c2.8-0.4,5.2-0.8,6.5-0.9h0c0.1,0,0.2-0.1,0.2-0.2c0-0.1,0-0.2-0.1-0.2
	c0,0-0.1,0-0.1,0c-1.3,0-3.8,0.4-6.6,0.9c-6.7,1-15.8,2.4-18.9,1.1c-1.1-0.5-2.1-2.9-1-11.8c0.8-5.8,2.2-12.2,2.9-15.3
	c0.2-0.9,0.3-1.5,0.4-1.7c0-0.1,0-0.2-0.1-0.2c-0.8-0.6-1.6-1.1-2.4-1.5c-0.2-0.1-0.3-0.1-0.4-0.2c-0.8-0.3-1.6-0.5-2.4-0.5
	c-0.5,0-1,0-1.5,0.1c-0.8,0.2-1.5,0.5-2,0.8c-0.1,0.1-0.3,0.2-0.4,0.3c-1.4,1-2.2,2.2-2.2,2.3c0,0,0,0,0,0c0,0.1-2.9,9.2-4.7,18.8
	c-2.3,13.1-1.5,21,2.5,23.4c2.8,1.7,7,2.6,12.6,2.6c2.4,0,5.1-0.2,8.1-0.5c5.2-0.6,9.8-1.5,12.1-2C103.4,68.1,103.6,68,103.7,68
	L103.7,68z"/>
<path d="M111.9,35.9c0.1,0,0.2,0.1,0.2,0.1c0.2,0.3,0.1,0.9,0,1.7c-0.2,2.8-0.7,8.1,6.3,9.6c5.6-0.3,9.5-4,11.9-7.1
	c2.1-2.8,3.3-5.6,3.7-6.5c-1.6-0.2-9.7-1.7-17-9.5c-2.4-2.5-6-2.2-8.6-1.1c-2.9,1.2-5.7,3.9-5.6,7.2
	C102.9,30.6,104.4,35.4,111.9,35.9z"/>
<path d="M103.5,32.5c0.2,0.2,0.3,0.4,0.5,0.6c1.2,1.3,3.5,2.9,7.7,3.2c0,0.3,0,0.8,0,1.4c-0.2,2.7-0.7,8.4,6.5,10c0,0,0.1,0,0.1,0h0
	h0c0.1,0,0.2,0,0.3,0c4.5-0.3,8.6-2.8,12-7.3c2.6-3.4,3.8-6.8,3.9-6.9c0-0.1,0-0.1,0-0.2c0-0.1-0.1-0.1-0.2-0.1c-0.1,0-9-0.8-17-9.4
	c-2.5-2.7-6.4-2.4-9.1-1.2c-3,1.3-6,4.2-5.8,7.6v0c0,0,0.2,0.7,0.8,1.7C103.3,32.2,103.4,32.4,103.5,32.5z M108.4,23.1
	c2.6-1.1,6.3-1.4,8.6,1.1c7.3,7.8,15.3,9.3,17,9.5c-0.3,0.9-1.6,3.7-3.7,6.5c-2.3,3.1-6.3,6.8-11.9,7.1c-7-1.5-6.5-6.7-6.3-9.6
	c0.1-0.9,0.1-1.4,0-1.7c0-0.1-0.1-0.1-0.2-0.1c-7.6-0.6-9-5.3-9.1-5.6C102.7,27,105.5,24.3,108.4,23.1z"/>
<path d="M153.1,160.5c0.1,0,0.2,0.1,0.3,0.1c0.1,0,0.2,0.1,0.3,0.1c0.1,0,0.2,0.1,0.3,0.1c0.1,0,0.2,0.1,0.4,0.1
	c0.1,0,0.2,0.1,0.3,0.1c0.1,0,0.3,0.1,0.4,0.1c0.1,0,0.2,0,0.2,0.1c0.2,0,0.3,0.1,0.5,0.1c0.1,0,0.1,0,0.2,0c0.2,0,0.4,0.1,0.7,0.2
	c0.1,0,0.2,0,0.3,0.1c0.1,0,0.2,0,0.3,0.1s0.2,0,0.3,0s0.2,0,0.3,0c0.1,0,0.2,0,0.3,0c0.1,0,0.2,0,0.3,0c0.1,0,0.2,0,0.4,0
	c0.1,0,0.2,0,0.3,0c0.1,0,0.2,0,0.4,0c0.1,0,0.2,0,0.3,0h0.4h0.3c0.1,0,0.2,0,0.3,0c0.1,0,0.2,0,0.3,0c0.1,0,0.2,0,0.3,0
	c0.1,0,0.2,0,0.3,0c0.1,0,0.2,0,0.3,0c0.1,0,0.2,0,0.3,0c0.1,0,0.2,0,0.3,0c0.1,0,0.2,0,0.2,0l-0.5-1.9c-0.5,0.3-1.5,0.6-3.1,0.6
	c-1.6,0-3.8-0.2-7-0.9l0.2,0.8C152.9,160.4,153,160.5,153.1,160.5L153.1,160.5z"/>
<path d="M162.7,159.9l0.5,1.9c0.1,0,0.2,0,0.2,0c0.1,0,0.2,0.1,0.3,0.2l-0.6-2.3c0,0,0,0,0,0C163,159.7,162.9,159.8,162.7,159.9
	L162.7,159.9z"/>
<path d="M152.4,160.4c0.1-0.1,0.2-0.1,0.2,0c0,0,0.1,0,0.1,0l-0.2-0.8c-0.2,0-0.3-0.1-0.5-0.1l0.3,1.1
	C152.3,160.5,152.4,160.4,152.4,160.4L152.4,160.4z"/>
<path d="M158.8,161.9c-0.1,0-0.2,0-0.4,0C158.6,161.9,158.7,161.9,158.8,161.9z"/>
<path d="M155.8,161.4c-0.1,0-0.1,0-0.2,0C155.7,161.4,155.8,161.4,155.8,161.4z"/>
<path d="M155.2,161.3c-0.1,0-0.2,0-0.2-0.1C155,161.2,155.1,161.2,155.2,161.3z"/>
<path d="M162.9,161.8c-0.1,0-0.2,0-0.3,0C162.7,161.8,162.8,161.8,162.9,161.8z"/>
<path d="M156.8,161.6c-0.1,0-0.2,0-0.3-0.1C156.6,161.6,156.7,161.6,156.8,161.6z"/>
<path d="M153.3,160.6c-0.1,0-0.2-0.1-0.3-0.1C153.1,160.6,153.2,160.6,153.3,160.6z"/>
<path d="M153.9,160.9c-0.1,0-0.2-0.1-0.3-0.1C153.8,160.8,153.8,160.8,153.9,160.9z"/>
<path d="M154.6,161.1c-0.1,0-0.2-0.1-0.3-0.1C154.4,161,154.5,161.1,154.6,161.1z"/>
<path d="M157.5,161.8c-0.1,0-0.2,0-0.3,0C157.2,161.7,157.4,161.7,157.5,161.8z"/>
<path d="M160.9,162c-0.1,0-0.2,0-0.3,0C160.6,162,160.8,162,160.9,162z"/>
<path d="M161.6,161.9c-0.1,0-0.2,0-0.3,0C161.3,161.9,161.4,161.9,161.6,161.9z"/>
<path d="M162.2,161.9c-0.1,0-0.2,0-0.3,0C162,161.9,162.1,161.9,162.2,161.9z"/>
<path d="M159.5,161.9c-0.1,0-0.2,0-0.4,0C159.3,161.9,159.4,161.9,159.5,161.9z"/>
<path d="M158.1,161.8c-0.1,0-0.2,0-0.3,0C157.9,161.8,158,161.8,158.1,161.8z"/>
<path d="M160.2,162h-0.4H160.2z"/>
<path class="st3" d="M152.9,160.9l0.3,1.4c0,0.1,0,0.2-0.1,0.2c-0.1,0.1-0.1,0.1-0.2,0.1s-2-0.4-11.6,1.3c-6.2,1.1-8.3,4.8-9,7.1h33
	l-2.1-8.8C159.7,162.7,156,162.3,152.9,160.9L152.9,160.9z"/>
<path class="st2" d="M163.4,161.7c-0.1,0-0.2,0-0.2,0c-0.1,0-0.2,0-0.2,0c-0.1,0-0.2,0-0.3,0c-0.1,0-0.2,0-0.3,0c-0.1,0-0.2,0-0.3,0
	c-0.1,0-0.2,0-0.3,0c-0.1,0-0.2,0-0.3,0c-0.1,0-0.2,0-0.3,0c-0.1,0-0.2,0-0.3,0h-0.3h-0.4c-0.1,0-0.2,0-0.3,0c-0.1,0-0.2,0-0.4,0
	c-0.1,0-0.2,0-0.3,0c-0.1,0-0.2,0-0.4,0c-0.1,0-0.2,0-0.3,0c-0.1,0-0.2,0-0.3,0c-0.1,0-0.2,0-0.3,0s-0.2,0-0.3,0
	c-0.1,0-0.2,0-0.3-0.1c-0.1,0-0.2,0-0.3-0.1c-0.2,0-0.4-0.1-0.7-0.2c-0.1,0-0.1,0-0.2,0c-0.2,0-0.3-0.1-0.5-0.1
	c-0.1,0-0.2,0-0.2-0.1c-0.1,0-0.3-0.1-0.4-0.1c-0.1,0-0.2-0.1-0.3-0.1c-0.1,0-0.2-0.1-0.4-0.1c-0.1,0-0.2-0.1-0.3-0.1
	c-0.1,0-0.2-0.1-0.3-0.1c-0.1,0-0.2-0.1-0.3-0.1c-0.1,0-0.2-0.1-0.3-0.1c0,0-0.1,0-0.1,0c-0.1,0-0.2,0-0.2,0
	c-0.1,0.1-0.1,0.1-0.1,0.2l0.3,1.5c-0.9-0.1-3.7,0-11.4,1.4c-6.7,1.2-8.8,5.4-9.4,7.7c0-0.1,0.1-0.2,0.2-0.2h0.3
	c0.7-2.3,2.7-6,9-7.1c9.6-1.8,11.5-1.3,11.6-1.3c0.1,0,0.2,0,0.2-0.1c0.1-0.1,0.1-0.1,0.1-0.2l-0.3-1.4c3.1,1.3,6.8,1.8,10.4,1.3
	l2.1,8.8h0.3c0.1,0,0.2,0.1,0.2,0.2l-2.2-9.3C163.6,161.8,163.5,161.7,163.4,161.7L163.4,161.7z"/>
<path d="M165.5,171.5h-33.2c-0.2,0.8-0.2,1.4-0.2,1.7h33.9L165.5,171.5L165.5,171.5z"/>
<path d="M165.9,171.2c0-0.1-0.1-0.2-0.2-0.2h-33.6c-0.1,0-0.2,0.1-0.2,0.2c-0.2,0.9-0.3,1.7-0.3,2v0.2c0,0.1,0.1,0.2,0.2,0.2h34.4
	c0.1,0,0.1,0,0.2-0.1c0-0.1,0.1-0.1,0-0.2l0-0.2L165.9,171.2L165.9,171.2z M132.3,171.5h33.2l0.4,1.7h-33.9
	C132.1,172.9,132.1,172.3,132.3,171.5z"/>
<path class="st1" d="M129.6,82.9C129.6,83,129.6,83,129.6,82.9c-0.2,0.1-2.3,1-4.2,1c-0.4,0-0.8,0-1.2-0.2c-0.1,0.7-0.2,1.3-0.2,1.9
	c0,2.7,2.5,17.3,7.5,33.4c4.3,13.9,11.3,32.2,20.7,39.9c7.7,1.6,9.9,0.9,10.6,0.3c0.3-0.2,0.2-0.5,0.2-0.5
	c-0.1-0.6-7.2-60.9-8.4-66.9c-2.5-12.7-8.6-15.5-8.7-15.5c-3.5-1.4-6.4-2-8.9-2.1C135.6,74.8,131.2,80.7,129.6,82.9z"/>
<path class="st2" d="M137.5,137.1c0.1,0.1,0.1,0.3,0.2,0.4c2,4.7,4.3,9.2,6.8,13.2c0.1,0.2,0.2,0.4,0.4,0.6c2.2,3.3,4.5,6.1,7,8.2
	c0,0,0.1,0,0.1,0c0,0,0.1,0,0.1,0c0.2,0,0.3,0.1,0.5,0.1c3.2,0.7,5.4,0.9,7,0.9c1.6,0,2.6-0.2,3.1-0.6c0.2-0.1,0.3-0.2,0.4-0.3l0,0
	c0.3-0.4,0.3-0.7,0.3-0.8c0-0.1-0.1-1-0.3-2.4c0-0.2,0-0.3-0.1-0.5c-0.3-2.3-0.7-6-1.2-10.3l0-0.4c0-0.1,0-0.3,0-0.4
	c-1.9-15.8-4.9-40.6-6.2-49.8c0-0.2,0-0.3-0.1-0.5c-0.2-1.2-0.3-2.1-0.4-2.6c-0.7-3.7-1.8-6.5-2.8-8.7c-0.1-0.2-0.2-0.4-0.3-0.6
	c-0.8-1.5-1.6-2.7-2.3-3.6c-1.9-2.3-3.4-3-3.5-3.1c-3.3-1.3-6.2-2-8.6-2.1c-0.1,0.1-0.2,0.2-0.3,0.4c0,0-0.1,0.1-0.1,0.1
	c0,0,0,0,0,0c2.5,0.1,5.4,0.7,8.9,2.1c0.1,0,6.1,2.9,8.7,15.5c1.2,6,8.3,66.2,8.4,66.9c0,0,0,0.2-0.2,0.5c-0.6,0.6-2.8,1.3-10.6-0.3
	c-9.3-7.8-16.4-26-20.7-39.9c-4.9-16.1-7.5-30.7-7.5-33.4c0-0.6,0.1-1.3,0.2-1.9c-0.2,0-0.3-0.1-0.4-0.2c-0.2,0.7-0.2,1.4-0.2,2.1
	c0,1.3,0.6,5.6,1.8,11.5l0.1,0.5c1.3,6,3.1,13.6,5.5,21.5C132.8,124.8,134.9,131.1,137.5,137.1L137.5,137.1z"/>
<path class="st1" d="M131.2,69.6c-3.9,1.3-6.5,3.9-7.9,7.8c-0.9,2.7-0.9,4.5,0.1,5.4c1.6,1.5,5.3-0.1,5.8-0.3
	c0.7-1.1,5.8-8.2,7.7-8.7c1.8-2,0.1-4.6-0.3-5.1c-0.1,0-0.3,0-0.6,0C135.1,68.9,133.3,69,131.2,69.6z"/>
<path class="st2" d="M122.9,77.4c-1,2.9-0.9,4.9,0.2,5.9c0.2,0.2,0.4,0.3,0.7,0.4c0.1,0.1,0.3,0.1,0.4,0.2c0.4,0.1,0.8,0.2,1.2,0.2
	c1.9,0,3.9-0.9,4.1-1c0,0,0.1,0,0.1-0.1c1.6-2.3,6-8.2,7.5-8.5c0,0,0,0,0,0c0,0,0.1,0,0.1-0.1c0.1-0.1,0.2-0.2,0.3-0.4
	c1.8-2.4-0.6-5.4-0.6-5.4c0,0-0.1-0.1-0.2-0.1c0,0-0.3,0-0.9,0c-0.2,0-0.4,0-0.7,0c-1,0.1-2.5,0.2-4.2,0.8c-0.1,0-0.2,0.1-0.3,0.1
	c-0.1,0-0.3,0.1-0.4,0.2C127.7,70.5,124.5,72.7,122.9,77.4z M136.6,68.9c0.4,0.5,2.1,3.1,0.3,5.1c-1.9,0.5-6.9,7.6-7.7,8.7
	c-0.5,0.2-4.2,1.7-5.8,0.3c-1-0.9-1-2.7-0.1-5.4c1.3-3.9,4-6.6,7.9-7.8c2-0.7,3.9-0.8,4.9-0.8C136.3,68.9,136.5,68.9,136.6,68.9z"/>
<path d="M82.4,30.7c0,0,0.1,0.1,0.1,0.1c0,0,0.1,0,0.1,0c0.1,0,0.2,0,0.2-0.1c0.1-0.1,0-0.2-0.1-0.3c-0.1-0.1-0.2-0.1-0.3-0.2
	c-5-2.9-9.4-0.8-10.7,0c-0.2,0.1-0.3,0.2-0.3,0.2c-0.1,0.1-0.1,0.2,0,0.3c0.1,0.1,0.1,0.1,0.2,0.1c0,0,0.1,0,0.1,0
	C71.8,30.7,76.7,27.3,82.4,30.7z"/>
<path class="st3" d="M204.7,76.3c0.1,0,1.7,0.1,2.3,1.1c0.3,0.5,0.3,1.1,0.1,1.8c-0.5,1.3-0.6,2.2-0.2,2.7c0.3,0.5,1,0.7,2.2,0.8
	c1.2,0,1.9-0.3,2.2-0.8c0.4-0.5,0.3-1.4-0.2-2.7c-0.3-0.7-0.3-1.3,0.1-1.8c0.6-1,2.2-1.1,2.3-1.1h0h5v-5.6c0-0.1-0.2-1.4-0.9-1.9
	c-0.4-0.2-0.8-0.2-1.4,0c-1.5,0.6-2.5,0.6-3.1,0.2c-0.6-0.4-0.9-1.3-1-2.6v0c0-1.3,0.3-2.2,1-2.6c0.7-0.5,1.7-0.4,3.1,0.2
	c0.6,0.2,1,0.2,1.4,0c0.8-0.5,0.9-1.8,0.9-1.9v-5.2h-5h0c-0.1,0-1.7-0.1-2.3-1.1c-0.3-0.5-0.3-1.1-0.1-1.8c0.5-1.3,0.6-2.2,0.2-2.7
	c-0.3-0.5-1-0.7-2.2-0.8c-1.2,0-1.9,0.3-2.2,0.8c-0.4,0.5-0.3,1.4,0.2,2.7c0.3,0.7,0.3,1.3-0.1,1.8c-0.6,1-2.2,1.1-2.3,1.1h0h-5.8
	V62c0,0.1,0.2,1.4,0.9,1.9c0.4,0.2,0.8,0.2,1.4,0c1.5-0.6,2.4-0.6,3.1-0.2c0.6,0.4,0.9,1.3,1,2.6c0,1.3-0.3,2.2-1,2.6
	c-0.7,0.5-1.7,0.4-3.1-0.2c-0.6-0.2-1-0.2-1.4,0c-0.8,0.5-0.9,1.8-0.9,1.9v5.6L204.7,76.3C204.7,76.3,204.7,76.3,204.7,76.3z"/>
<path class="st2" d="M198.6,76.8h6.1c0.1,0,1.4,0.2,1.9,0.9c0.2,0.4,0.2,0.8,0,1.4c-0.6,1.5-0.6,2.5-0.2,3.1c0.4,0.6,1.3,0.9,2.6,1
	c1.3,0,2.2-0.3,2.6-1c0.5-0.7,0.4-1.7-0.2-3.1c-0.2-0.6-0.2-1,0-1.4c0.5-0.8,1.8-0.9,1.9-0.9h5.2c0.1,0,0.2-0.1,0.2-0.2v-5.8v0
	c0-0.1-0.1-1.7-1.2-2.3c-0.5-0.3-1.1-0.3-1.8-0.1c-1.3,0.5-2.2,0.6-2.7,0.2c-0.5-0.3-0.7-1-0.8-2.2c0-1.2,0.3-1.9,0.8-2.2
	c0.5-0.4,1.4-0.3,2.7,0.2c0.7,0.3,1.3,0.3,1.8-0.1c1-0.6,1.1-2.2,1.1-2.3v0v-5.4c0-0.1-0.1-0.2-0.2-0.2h-5.2c-0.1,0-1.4-0.2-1.9-0.9
	c-0.2-0.4-0.2-0.8,0-1.4c0.6-1.5,0.6-2.5,0.2-3.1c-0.4-0.6-1.3-0.9-2.6-1c-1.3,0-2.2,0.3-2.6,1c-0.5,0.7-0.4,1.7,0.2,3.1
	c0.2,0.6,0.2,1,0,1.4c-0.5,0.8-1.8,0.9-1.9,0.9h-6.1c-0.1,0-0.2,0.1-0.2,0.2v5.4v0c0,0.1,0.1,1.7,1.1,2.3c0.5,0.3,1.1,0.3,1.8,0.1
	c1.3-0.5,2.2-0.6,2.7-0.2c0.5,0.3,0.7,1,0.8,2.2c0,1.2-0.3,1.9-0.8,2.2c-0.5,0.4-1.4,0.3-2.7-0.2c-0.7-0.3-1.3-0.3-1.8,0.1
	c-1,0.6-1.1,2.2-1.2,2.3v0v5.8C198.4,76.7,198.5,76.8,198.6,76.8L198.6,76.8z M198.8,70.8c0-0.1,0.2-1.5,0.9-1.9
	c0.4-0.2,0.8-0.2,1.4,0c1.5,0.6,2.5,0.6,3.1,0.2c0.6-0.4,0.9-1.3,1-2.6c0-1.3-0.3-2.2-1-2.6c-0.7-0.5-1.7-0.4-3.1,0.2
	c-0.6,0.2-1,0.2-1.4,0c-0.8-0.5-0.9-1.8-0.9-1.9v-5.2h5.8h0c0.1,0,1.7-0.1,2.3-1.1c0.3-0.5,0.3-1.1,0.1-1.8
	c-0.5-1.3-0.6-2.2-0.2-2.7c0.3-0.5,1-0.7,2.2-0.8c1.2,0,1.9,0.3,2.2,0.8c0.4,0.5,0.3,1.4-0.2,2.7c-0.3,0.7-0.3,1.3,0.1,1.8
	c0.6,1,2.2,1.1,2.3,1.1h0h5V62c0,0.1-0.2,1.4-0.9,1.9c-0.4,0.2-0.8,0.2-1.4,0c-1.5-0.6-2.4-0.6-3.1-0.2c-0.6,0.4-0.9,1.3-1,2.6v0
	c0,1.3,0.3,2.2,1,2.6c0.7,0.5,1.7,0.4,3.1-0.2c0.6-0.2,1-0.2,1.4,0c0.8,0.5,0.9,1.8,0.9,1.9v5.6h-5h0c-0.1,0-1.7,0.1-2.3,1.1
	c-0.3,0.5-0.3,1.1-0.1,1.8c0.5,1.3,0.6,2.2,0.2,2.7c-0.3,0.5-1,0.7-2.2,0.8c-1.2,0-1.9-0.3-2.2-0.8c-0.4-0.5-0.3-1.4,0.2-2.7
	c0.3-0.7,0.3-1.3-0.1-1.8c-0.6-1-2.2-1.1-2.3-1.1h0h-5.8L198.8,70.8L198.8,70.8z"/>
<path class="st1" d="M34.7,61.5c0.1,0,1.7,0.1,2.3,1.1c0.3,0.5,0.3,1.1,0.1,1.8c-0.5,1.3-0.6,2.2-0.2,2.7c0.3,0.5,1,0.7,2.2,0.8
	c1.2,0,1.9-0.3,2.2-0.8c0.4-0.5,0.3-1.4-0.2-2.7c-0.3-0.7-0.3-1.3,0.1-1.8c0.6-1,2.2-1.1,2.3-1.1h0h5.8v-5.2c0-0.1-0.2-1.4-0.9-1.9
	c-0.4-0.2-0.8-0.2-1.4,0c-1.5,0.6-2.4,0.6-3.1,0.2c-0.6-0.4-0.9-1.3-1-2.6c0-1.3,0.3-2.2,1-2.6c0.7-0.5,1.7-0.4,3.1,0.2
	c0.6,0.2,1,0.2,1.4,0c0.8-0.5,0.9-1.8,0.9-1.9V42h-5.8h0c-0.1,0-1.7-0.1-2.3-1.1c-0.3-0.5-0.3-1.1-0.1-1.8c0.5-1.3,0.6-2.2,0.2-2.7
	c-0.3-0.5-1-0.7-2.2-0.8c-1.2,0-1.9,0.3-2.2,0.8c-0.4,0.5-0.3,1.4,0.2,2.7c0.3,0.7,0.3,1.3-0.1,1.8c-0.6,1-2.2,1.1-2.3,1.1h0h-5v5.6
	c0,0.1,0.2,1.4,0.9,1.9c0.4,0.2,0.8,0.2,1.4,0c1.5-0.6,2.5-0.6,3.1-0.2c0.6,0.4,0.9,1.3,1,2.6v0c0,1.3-0.3,2.2-1,2.6
	c-0.7,0.5-1.7,0.4-3.1-0.2c-0.6-0.2-1.1-0.2-1.4,0c-0.8,0.5-0.9,1.8-0.9,1.9v5.2L34.7,61.5C34.8,61.5,34.7,61.5,34.7,61.5z"/>
<path class="st2" d="M29.5,61.9h5.2c0.1,0,1.4,0.2,1.9,0.9c0.2,0.4,0.2,0.8,0,1.4c-0.6,1.5-0.6,2.5-0.2,3.1c0.4,0.6,1.3,0.9,2.6,1
	c1.3,0,2.2-0.3,2.6-1c0.2-0.2,0.3-0.5,0.3-0.8c0.1-0.6-0.1-1.3-0.5-2.3c0-0.1,0-0.1-0.1-0.2c-0.2-0.5-0.1-0.9,0.1-1.3
	c0.1-0.2,0.3-0.3,0.4-0.4c0.1-0.1,0.3-0.2,0.4-0.2c0.5-0.2,1-0.3,1.1-0.3h6.1c0.1,0,0.2-0.1,0.2-0.2v-5.4v0c0-0.1-0.1-1.7-1.1-2.3
	c-0.5-0.3-1.1-0.3-1.8-0.1c-1.3,0.5-2.2,0.6-2.7,0.2c-0.5-0.3-0.7-1-0.8-2.2c0-1.2,0.3-1.9,0.8-2.2c0.5-0.4,1.4-0.3,2.7,0.2
	c0.7,0.3,1.3,0.3,1.8-0.1c1-0.6,1.1-2.2,1.2-2.3v0v-5.8c0-0.1-0.1-0.2-0.2-0.2h-6.1c-0.1,0-1.4-0.2-1.9-0.9c-0.2-0.4-0.2-0.8,0-1.4
	c0.6-1.5,0.6-2.5,0.2-3.1c-0.4-0.6-1.3-0.9-2.6-1c-1.3,0-2.2,0.3-2.6,1c-0.5,0.7-0.4,1.7,0.2,3.1c0.2,0.6,0.2,1,0,1.4
	c-0.5,0.8-1.8,0.9-1.9,0.9h-5.2c-0.1,0-0.2,0.1-0.2,0.2v5.8v0c0,0.1,0.1,1.7,1.2,2.3c0.5,0.3,1.1,0.3,1.8,0.1
	c1.3-0.5,2.2-0.6,2.7-0.2c0.5,0.3,0.7,1,0.8,2.2c0,1.2-0.3,1.9-0.8,2.2c-0.5,0.4-1.4,0.3-2.7-0.2c-0.7-0.3-1.3-0.3-1.8,0.1
	c-1,0.6-1.1,2.2-1.1,2.3v0v5.4C29.3,61.9,29.4,61.9,29.5,61.9z M29.8,56.3c0-0.1,0.2-1.4,0.9-1.9c0.4-0.2,0.8-0.2,1.4,0
	c1.5,0.6,2.4,0.6,3.1,0.2c0.6-0.4,0.9-1.3,1-2.6v0c0-1.3-0.3-2.2-1-2.6c-0.7-0.5-1.7-0.4-3.1,0.2c-0.6,0.2-1,0.2-1.4,0
	c-0.8-0.5-0.9-1.8-0.9-1.9V42h5h0c0.1,0,1.7-0.1,2.3-1.1c0.3-0.5,0.3-1.1,0.1-1.8c-0.5-1.3-0.6-2.2-0.2-2.7c0.3-0.5,1-0.7,2.2-0.8
	c1.2,0,1.9,0.3,2.2,0.8c0.4,0.5,0.3,1.4-0.2,2.7c-0.3,0.7-0.3,1.3,0.1,1.8c0.6,1,2.2,1.1,2.3,1.1h0h5.9v5.6c0,0.1-0.2,1.5-0.9,1.9
	c-0.4,0.2-0.8,0.2-1.4,0c-1.5-0.6-2.5-0.6-3.1-0.2c-0.6,0.4-0.9,1.3-1,2.6c0,1.3,0.3,2.2,1,2.6c0.7,0.5,1.7,0.4,3.1-0.2
	c0.6-0.2,1-0.2,1.4,0c0.8,0.5,0.9,1.8,0.9,1.9v5.2h-5.8h0c-0.1,0-1.7,0.1-2.3,1.1c-0.3,0.5-0.3,1.1-0.1,1.8c0.5,1.3,0.6,2.2,0.2,2.7
	c-0.3,0.5-1,0.7-2.2,0.8c-1.2,0-1.9-0.3-2.2-0.8c-0.4-0.5-0.3-1.4,0.2-2.7c0.3-0.7,0.3-1.3-0.1-1.8c-0.6-1-2.2-1.1-2.3-1.1h0h-5
	C29.8,61.5,29.8,56.3,29.8,56.3z"/>
</svg>
