<?xml version="1.0" encoding="utf-8"?>
<!-- Generator: Adobe Illustrator 28.1.0, SVG Export Plug-In . SVG Version: 6.00 Build 0)  -->
<svg version="1.1" id="Layer_1" xmlns="http://www.w3.org/2000/svg" xmlns:xlink="http://www.w3.org/1999/xlink" x="0px" y="0px"
	 viewBox="0 0 985.4 567.9" style="enable-background:new 0 0 985.4 567.9;" xml:space="preserve">
<style type="text/css">
	.st0{fill:none;stroke:#1A1A1A;stroke-width:1.5842;stroke-linecap:round;stroke-linejoin:round;stroke-miterlimit:10;}
	.st1{fill:#1D0810;stroke:#1A1A1A;stroke-width:0.5281;stroke-linecap:round;stroke-linejoin:round;stroke-miterlimit:10;}
	.st2{fill:#FFFFFF;stroke:#1A1A1A;stroke-width:1.0561;stroke-linecap:round;stroke-linejoin:round;stroke-miterlimit:10;}
	.st3{fill:none;stroke:#1A1A1A;stroke-width:1.0561;stroke-linecap:round;stroke-linejoin:round;stroke-miterlimit:10;}
	
		.st4{fill:none;stroke:#1A1A1A;stroke-width:1.0561;stroke-linecap:round;stroke-linejoin:round;stroke-miterlimit:10;stroke-dasharray:6.3368;}
	.st5{fill:#A9B971;stroke:#1A1A1A;stroke-width:1.0561;stroke-linecap:round;stroke-linejoin:round;stroke-miterlimit:10;}
	.st6{fill:none;stroke:#FFFFFF;stroke-width:1.5842;stroke-linecap:round;stroke-linejoin:round;stroke-miterlimit:10;}
	.st7{fill:#FFFFFF;stroke:#353535;stroke-miterlimit:10;}
	.st8{fill:#FFFFFF;stroke:#1A1A1A;stroke-width:1.0561;stroke-linecap:round;stroke-linejoin:round;stroke-miterlimit:9.9999;}
</style>
<g id="Vector">
	<path class="st0" d="M316.2,551.6c-19.8-23,18.2-66.2,66.8-84.4c60-22.5,167.9-4.3,177-1.4c3.5-4,58-64.1,169.1-66.4
		c85.9-1.7,125.7,13.4,159.1,70.1c2.8-0.7,45.5,0.7,72.9,15.2c33,17.3,29.8,57-0.1,82.3c-203.3,0-406.6,0-609.8,0
		C329.3,563,320.4,556.5,316.2,551.6z"/>
	<g>
		<g>
			<path class="st1" d="M747.9,72.3c0-17.1-14.8-31-33.1-31H251.5c-18.2,0-33.1,13.9-33.1,31v0.3h529.5V72.3z"/>
			<rect x="656.2" y="102.2" class="st1" width="91.7" height="25.8"/>
			<rect x="656.2" y="128" class="st2" width="91.7" height="149.1"/>
			<path class="st1" d="M656.2,277v98.7H715c18.2,0,33.1-13.9,33.1-31V277H656.2L656.2,277z"/>
			<path class="st2" d="M747.9,72.6v29.6h-91.7v273.5H251.5c-18.2,0-33.1-13.9-33.1-31V72.6H747.9z"/>
			<line class="st3" x1="656.2" y1="102.2" x2="218.4" y2="102.2"/>
			<line class="st3" x1="307.1" y1="102.2" x2="307.1" y2="375.7"/>
			<rect x="336.7" y="122.2" class="st4" width="275" height="106.9"/>
			<rect x="336.7" y="245.8" class="st4" width="275" height="106.9"/>
		</g>
		<path class="st2" d="M452.7,375.7v191.2h84.9V375.7H452.7z M495.1,452.5c-11.5,0-20.8-8.2-20.8-18.4c0-10.1,9.3-18.4,20.8-18.4
			s20.8,8.2,20.8,18.4S506.6,452.5,495.1,452.5z"/>
	</g>
	<g>
		<path class="st5" d="M671.8,566.3c12.1,0.5,24.7,0.9,35.9-3.7c11.2-4.6,20.7-15.8,19.3-27.9c-0.8-6.4-4.4-12.1-6.9-18
			c-2.6-5.9-4-13.1-0.6-18.6c4.7-7.5,16-8.2,21.1-15.5c4.5-6.5,2.1-15.6-1.7-22.5c-2.2-3.9-4.9-7.8-8.8-9.9
			c-3.9-2.2-9.3-2.1-12.5,1.1c-3.2,3.3-3.1,8.6-5.6,12.5c-2.4,3.8-7,5.7-11.4,6.2s-8.9-0.3-13.4-0.7c-22.5-2-47.1,6.8-58.9,26
			c-5.1,8.2-7.6,17.7-11.7,26.4s-10.6,17.1-19.8,19.8c-3.6,1-7.3,1.1-11,1.8c-3.6,0.7-7.4,2.4-9.3,5.5c-3.4,5.5,0.5,13.1,6.2,16.1
			s12.7,0.7,19,2.1C603.2,567.4,671.8,566.3,671.8,566.3z"/>
		<path class="st6" d="M623.9,567.1c10.5-5,23.7-17,31-26.1c7-8.7,12.1-18.8,18.7-27.8c6.6-9,15.4-17.2,26.3-19.5"/>
		<path class="st6" d="M673.6,498.4c0,0-2.8,4.6,0,14.8"/>
		<path class="st6" d="M679.5,527.1c0,0-3.1,4.2-17.7,4.1"/>
		<path class="st6" d="M702.9,502.3c0,0-8.6,3.8-17.6-1.6"/>
		<path class="st2" d="M551.9,486.6c0.6-6.7,1.8-13.7,5.5-19.3c3.7-5.7,10.4-9.8,17.1-8.7c7.4,1.3,14,8.6,21.1,6.3
			c4.5-1.5,7-6.5,7.2-11.2s-1.4-9.3-2.5-13.9c-1.6-6.1-2.5-12.5-1.2-18.7c1.2-6.2,4.9-12.1,10.5-14.9c8.6-4.3,19.5-0.1,26.1,7
			c2.4,2.5,4.4,5.4,7,7.7s6.2,3.9,9.6,3.1c3.6-0.8,6.2-4,7.2-7.5s0.7-7.2,0-10.8c-0.8-4.8-1.8-10.7,2-13.8c2.6-2,6.2-1.8,9.4-1.3
			c7.5,1.2,15,3.4,21.1,7.9s10.7,11.5,10.7,19.1s-5.3,15.3-12.8,16.6c-4.9,0.9-10.4-0.9-14.8,1.6c-4.6,2.6-5.7,9-4.2,14
			s5.1,9.2,8.1,13.5s5.7,9.4,5.1,14.6c-0.8,7-7.4,12.2-14.3,13.3c-6.9,1.1-13.9-1.2-20.2-4.3c-3.5-1.8-7.3-4-11.2-3.2
			c-5.8,1.1-8.5,8-8,13.9c0.5,5.8,3.1,11.3,3.5,17.2c1.1,13.5-9.6,25.8-22.2,30.9c-12.6,5.2-26.6,4.8-40.2,4.4
			c-6.1-7.7-16.6-16.8-18.6-26.7C550.9,511.6,550.9,498.6,551.9,486.6z"/>
		<path class="st2" d="M561.7,522.1c16.8-8.3,31.3-21.2,41.4-36.9c6.4-9.9,11.1-20.9,17.6-30.8s15.2-19,26.5-22.5"/>
		<path class="st2" d="M620.5,435.4c0,0-2.4,13-1.3,21.4"/>
		<path class="st2" d="M655.8,448.8c-0.6-0.4-22.7,6.1-33.9,3.8"/>
		<path class="st2" d="M620.5,487.4c0,0-12.2,11-23.5,6.3"/>
		<path class="st2" d="M579.6,485.2c0,0.6-6.4,16.1,1.6,24.4"/>
	</g>
	<path class="st7" d="M73.7,566.8c179,0,358,0,537.1,0c-11.2-57.2-58.9-100-115.3-104.6c-51.3-4.2-101,24.1-124.8,71.2
		c-4.9-7.3-21.8-42.4-100.5-42.4c-75.5,0-99.3,13.2-112.8,22.1c-16.5-35.4-68.1-47.1-87.9-23C51.9,511.6,52.9,545,73.7,566.8z"/>
	<path class="st0" d="M0.8,566.8c3.1,0,796.8,0,796.8,0"/>
	<circle class="st2" cx="777.7" cy="281.3" r="18.1"/>
	<circle class="st2" cx="46.4" cy="450.9" r="12.8"/>
	<path class="st2" d="M144.3,93.3v-12h-12.4c-0.5-1.8-1.2-3.5-2.1-5l8.8-8.8l-8.5-8.5l-8.8,8.8c-1.6-0.9-3.3-1.6-5-2.1V53.3h-12
		v12.4c-1.8,0.5-3.5,1.2-5,2.1L90.5,59L82,67.5l8.8,8.8c-0.9,1.6-1.6,3.3-2.1,5H76.3v12h12.4c0.5,1.8,1.2,3.5,2.1,5l-8.8,8.8
		l8.5,8.5l8.8-8.8c1.6,0.9,3.3,1.6,5,2.1v12.4h12v-12.4c1.8-0.5,3.5-1.2,5-2.1l8.8,8.8l8.5-8.5l-8.8-8.8c0.9-1.6,1.6-3.3,2.1-5
		H144.3z M120.7,93.3c-1.1,1.8-2.6,3.3-4.4,4.4c-0.9,0.5-1.9,0.9-2.9,1.2s-2,0.4-3.1,0.4s-2.1-0.1-3.1-0.4s-2-0.7-2.9-1.2
		c-1.8-1.1-3.3-2.6-4.4-4.4c-0.5-0.9-0.9-1.9-1.2-2.9c-0.3-1-0.4-2-0.4-3.1s0.1-2.1,0.4-3.1s0.7-2,1.2-2.9c1.1-1.8,2.6-3.3,4.4-4.4
		c0.9-0.5,1.9-0.9,2.9-1.2s2-0.4,3.1-0.4s2.1,0.1,3.1,0.4s2,0.7,2.9,1.2c1.8,1.1,3.3,2.6,4.4,4.4c0.5,0.9,0.9,1.9,1.2,2.9
		s0.4,2,0.4,3.1s-0.1,2.1-0.4,3.1C121.6,91.4,121.2,92.4,120.7,93.3z"/>
	<g>
		<rect x="763.3" y="90.5" class="st2" width="45.7" height="45.7"/>
		<line class="st3" x1="786.1" y1="98.4" x2="786.1" y2="128.5"/>
		<line class="st3" x1="771.1" y1="113.4" x2="800.8" y2="113.4"/>
	</g>
	<ellipse transform="matrix(0.4061 -0.9138 0.9138 0.4061 145.1695 240.9924)" class="st8" cx="258" cy="8.8" rx="8.3" ry="8.3"/>
	<g>
		<g>
			<rect x="809" y="186.1" class="st2" width="69" height="44.7"/>
			<polygon class="st2" points="843.5,207.9 809,186.1 878,186.1 			"/>
		</g>
		<line class="st3" x1="809" y1="230.9" x2="834.7" y2="202.3"/>
		<line class="st3" x1="853.3" y1="202.3" x2="878" y2="230.9"/>
	</g>
</g>
</svg>
