<?xml version="1.0" encoding="utf-8"?>
<!-- Generator: Adobe Illustrator 27.8.1, SVG Export Plug-In . SVG Version: 6.00 Build 0)  -->
<svg version="1.1" id="Layer_1" xmlns="http://www.w3.org/2000/svg" xmlns:xlink="http://www.w3.org/1999/xlink" x="0px" y="0px"
	 viewBox="0 0 525.4 604.9" style="enable-background:new 0 0 525.4 604.9;" xml:space="preserve">
<style type="text/css">
	.st0{fill-rule:evenodd;clip-rule:evenodd;fill:#A9B971;}
	.st1{fill:#A9B971;stroke:#5E9EF9;stroke-width:0.9839;stroke-miterlimit:98.3927;}
	.st2{fill-rule:evenodd;clip-rule:evenodd;fill:#FCD03C;}
	.st3{fill:#FCD03C;stroke:#5E9EF9;stroke-width:0.9839;stroke-miterlimit:98.3927;}
</style>
<g>
	<g>
		<g>
			<path class="st0" d="M429,391.4L168.6,549.5l95.9,54.8L524.9,445V323L429,267L429,391.4L429,391.4z M382.8,98.9L97.6,254.5v-47.3
				L355.4,55.4L259.6,0.6L1.8,151.2L0.5,417.6l285.2-156.8L287,313L21.7,466.1l95.9,54.8l264.1-153.1L382.8,98.9z M429,97.7
				l-1.3,113.2l97.1,54.8V153.7L429,97.7z"/>
		</g>
		<g>
			<path class="st1" d="M429,391.4L168.6,549.5l95.9,54.8L524.9,445V323L429,267L429,391.4L429,391.4z M382.8,98.9L97.6,254.5v-47.3
				L355.4,55.4L259.6,0.6L1.8,151.2L0.5,417.6l285.2-156.8L287,313L21.7,466.1l95.9,54.8l264.1-153.1L382.8,98.9z M429,97.7
				l-1.3,113.2l97.1,54.8V153.7L429,97.7z"/>
		</g>
	</g>
</g>
<g>
	<g>
		<g>
			<polygon class="st2" points="429,97.7 427.7,210.9 524.8,265.6 524.8,153.7 			"/>
		</g>
		<g>
			<polygon class="st3" points="429,97.7 427.7,210.9 524.8,265.6 524.8,153.7 			"/>
		</g>
	</g>
</g>
</svg>
