<?xml version="1.0" encoding="utf-8"?>
<!-- Generator: Adobe Illustrator 28.2.0, SVG Export Plug-In . SVG Version: 6.00 Build 0)  -->
<svg version="1.1" id="Layer_1" xmlns="http://www.w3.org/2000/svg" xmlns:xlink="http://www.w3.org/1999/xlink" x="0px" y="0px"
	 viewBox="0 0 24 24" style="enable-background:new 0 0 24 24;" xml:space="preserve">
<style type="text/css">
	.st0{fill:#FFFFFF;}
</style>
<path class="st0" d="M12,5l0.5-0.5c-0.3-0.3-0.8-0.3-1.1,0L12,5z M12,13l-0.5,0.5c0.3,0.3,0.8,0.3,1.1,0L12,13z M9.5,6.5
	c-0.3,0.3-0.3,0.8,0,1.1c0.3,0.3,0.8,0.3,1.1,0L9.5,6.5z M13.5,7.5c0.3,0.3,0.8,0.3,1.1,0c0.3-0.3,0.3-0.8,0-1.1L13.5,7.5z
	 M10.5,10.5c-0.3-0.3-0.8-0.3-1.1,0c-0.3,0.3-0.3,0.8,0,1.1L10.5,10.5z M14.5,11.5c0.3-0.3,0.3-0.8,0-1.1s-0.8-0.3-1.1,0L14.5,11.5z
	 M3.2,10v4h1.5v-4H3.2z M20.8,14v-4h-1.5v4H20.8z M11.2,5v8h1.5V5H11.2z M11.5,4.5l-2,2l1.1,1.1l2-2L11.5,4.5z M11.5,5.5l2,2
	l1.1-1.1l-2-2L11.5,5.5z M12.5,12.5l-2-2l-1.1,1.1l2,2L12.5,12.5z M12.5,13.5l2-2l-1.1-1.1l-2,2L12.5,13.5z M20.8,10
	c0-4.8-3.9-8.8-8.8-8.8v1.5c4,0,7.2,3.2,7.2,7.2H20.8z M12,22.7c4.8,0,8.8-3.9,8.8-8.8h-1.5c0,4-3.2,7.2-7.2,7.2V22.7z M3.2,14
	c0,4.8,3.9,8.8,8.8,8.8v-1.5c-4,0-7.2-3.2-7.2-7.2H3.2z M4.8,10C4.8,6,8,2.7,12,2.7V1.2c-4.8,0-8.8,3.9-8.8,8.8H4.8z"/>
</svg>
